G04 #@! TF.GenerationSoftware,KiCad,Pcbnew,no-vcs-found-be10de8~57~ubuntu16.10.1*
G04 #@! TF.CreationDate,2017-03-16T12:00:26+01:00*
G04 #@! TF.ProjectId,reborn-plutonium-monitor,7265626F726E2D706C75746F6E69756D,rev?*
G04 #@! TF.FileFunction,Legend,Top*
G04 #@! TF.FilePolarity,Positive*
%FSLAX46Y46*%
G04 Gerber Fmt 4.6, Leading zero omitted, Abs format (unit mm)*
G04 Created by KiCad (PCBNEW no-vcs-found-be10de8~57~ubuntu16.10.1) date Thu Mar 16 12:00:26 2017*
%MOMM*%
%LPD*%
G01*
G04 APERTURE LIST*
%ADD10C,0.100000*%
%ADD11C,0.125000*%
%ADD12C,0.150000*%
%ADD13C,0.120000*%
G04 APERTURE END LIST*
D10*
D11*
X187800297Y-30288690D02*
X187800297Y-29955357D01*
X187800297Y-30050595D02*
X187824107Y-30002976D01*
X187847916Y-29979166D01*
X187895535Y-29955357D01*
X187943154Y-29955357D01*
X188300297Y-30264880D02*
X188252678Y-30288690D01*
X188157440Y-30288690D01*
X188109821Y-30264880D01*
X188086011Y-30217261D01*
X188086011Y-30026785D01*
X188109821Y-29979166D01*
X188157440Y-29955357D01*
X188252678Y-29955357D01*
X188300297Y-29979166D01*
X188324107Y-30026785D01*
X188324107Y-30074404D01*
X188086011Y-30122023D01*
X188538392Y-30288690D02*
X188538392Y-29788690D01*
X188538392Y-29979166D02*
X188586011Y-29955357D01*
X188681250Y-29955357D01*
X188728869Y-29979166D01*
X188752678Y-30002976D01*
X188776488Y-30050595D01*
X188776488Y-30193452D01*
X188752678Y-30241071D01*
X188728869Y-30264880D01*
X188681250Y-30288690D01*
X188586011Y-30288690D01*
X188538392Y-30264880D01*
X189062202Y-30288690D02*
X189014583Y-30264880D01*
X188990773Y-30241071D01*
X188966964Y-30193452D01*
X188966964Y-30050595D01*
X188990773Y-30002976D01*
X189014583Y-29979166D01*
X189062202Y-29955357D01*
X189133630Y-29955357D01*
X189181250Y-29979166D01*
X189205059Y-30002976D01*
X189228869Y-30050595D01*
X189228869Y-30193452D01*
X189205059Y-30241071D01*
X189181250Y-30264880D01*
X189133630Y-30288690D01*
X189062202Y-30288690D01*
X189443154Y-30288690D02*
X189443154Y-29955357D01*
X189443154Y-30050595D02*
X189466964Y-30002976D01*
X189490773Y-29979166D01*
X189538392Y-29955357D01*
X189586011Y-29955357D01*
X189752678Y-29955357D02*
X189752678Y-30288690D01*
X189752678Y-30002976D02*
X189776488Y-29979166D01*
X189824107Y-29955357D01*
X189895535Y-29955357D01*
X189943154Y-29979166D01*
X189966964Y-30026785D01*
X189966964Y-30288690D01*
X190586011Y-29955357D02*
X190586011Y-30455357D01*
X190586011Y-29979166D02*
X190633630Y-29955357D01*
X190728869Y-29955357D01*
X190776488Y-29979166D01*
X190800297Y-30002976D01*
X190824107Y-30050595D01*
X190824107Y-30193452D01*
X190800297Y-30241071D01*
X190776488Y-30264880D01*
X190728869Y-30288690D01*
X190633630Y-30288690D01*
X190586011Y-30264880D01*
X191109821Y-30288690D02*
X191062202Y-30264880D01*
X191038392Y-30217261D01*
X191038392Y-29788690D01*
X191514583Y-29955357D02*
X191514583Y-30288690D01*
X191300297Y-29955357D02*
X191300297Y-30217261D01*
X191324107Y-30264880D01*
X191371726Y-30288690D01*
X191443154Y-30288690D01*
X191490773Y-30264880D01*
X191514583Y-30241071D01*
X191681250Y-29955357D02*
X191871726Y-29955357D01*
X191752678Y-29788690D02*
X191752678Y-30217261D01*
X191776488Y-30264880D01*
X191824107Y-30288690D01*
X191871726Y-30288690D01*
X192109821Y-30288690D02*
X192062202Y-30264880D01*
X192038392Y-30241071D01*
X192014583Y-30193452D01*
X192014583Y-30050595D01*
X192038392Y-30002976D01*
X192062202Y-29979166D01*
X192109821Y-29955357D01*
X192181250Y-29955357D01*
X192228869Y-29979166D01*
X192252678Y-30002976D01*
X192276488Y-30050595D01*
X192276488Y-30193452D01*
X192252678Y-30241071D01*
X192228869Y-30264880D01*
X192181250Y-30288690D01*
X192109821Y-30288690D01*
X192490773Y-29955357D02*
X192490773Y-30288690D01*
X192490773Y-30002976D02*
X192514583Y-29979166D01*
X192562202Y-29955357D01*
X192633630Y-29955357D01*
X192681250Y-29979166D01*
X192705059Y-30026785D01*
X192705059Y-30288690D01*
X192943154Y-30288690D02*
X192943154Y-29955357D01*
X192943154Y-29788690D02*
X192919345Y-29812500D01*
X192943154Y-29836309D01*
X192966964Y-29812500D01*
X192943154Y-29788690D01*
X192943154Y-29836309D01*
X193252678Y-30288690D02*
X193205059Y-30264880D01*
X193181250Y-30241071D01*
X193157440Y-30193452D01*
X193157440Y-30050595D01*
X193181250Y-30002976D01*
X193205059Y-29979166D01*
X193252678Y-29955357D01*
X193324107Y-29955357D01*
X193371726Y-29979166D01*
X193395535Y-30002976D01*
X193419345Y-30050595D01*
X193419345Y-30193452D01*
X193395535Y-30241071D01*
X193371726Y-30264880D01*
X193324107Y-30288690D01*
X193252678Y-30288690D01*
X193633630Y-30288690D02*
X193633630Y-29955357D01*
X193633630Y-30002976D02*
X193657440Y-29979166D01*
X193705059Y-29955357D01*
X193776488Y-29955357D01*
X193824107Y-29979166D01*
X193847916Y-30026785D01*
X193847916Y-30288690D01*
X193847916Y-30026785D02*
X193871726Y-29979166D01*
X193919345Y-29955357D01*
X193990773Y-29955357D01*
X194038392Y-29979166D01*
X194062202Y-30026785D01*
X194062202Y-30288690D01*
X187800297Y-31163690D02*
X187800297Y-30830357D01*
X187800297Y-30877976D02*
X187824107Y-30854166D01*
X187871726Y-30830357D01*
X187943154Y-30830357D01*
X187990773Y-30854166D01*
X188014583Y-30901785D01*
X188014583Y-31163690D01*
X188014583Y-30901785D02*
X188038392Y-30854166D01*
X188086011Y-30830357D01*
X188157440Y-30830357D01*
X188205059Y-30854166D01*
X188228869Y-30901785D01*
X188228869Y-31163690D01*
X188538392Y-31163690D02*
X188490773Y-31139880D01*
X188466964Y-31116071D01*
X188443154Y-31068452D01*
X188443154Y-30925595D01*
X188466964Y-30877976D01*
X188490773Y-30854166D01*
X188538392Y-30830357D01*
X188609821Y-30830357D01*
X188657440Y-30854166D01*
X188681250Y-30877976D01*
X188705059Y-30925595D01*
X188705059Y-31068452D01*
X188681250Y-31116071D01*
X188657440Y-31139880D01*
X188609821Y-31163690D01*
X188538392Y-31163690D01*
X188919345Y-30830357D02*
X188919345Y-31163690D01*
X188919345Y-30877976D02*
X188943154Y-30854166D01*
X188990773Y-30830357D01*
X189062202Y-30830357D01*
X189109821Y-30854166D01*
X189133630Y-30901785D01*
X189133630Y-31163690D01*
X189371726Y-31163690D02*
X189371726Y-30830357D01*
X189371726Y-30663690D02*
X189347916Y-30687500D01*
X189371726Y-30711309D01*
X189395535Y-30687500D01*
X189371726Y-30663690D01*
X189371726Y-30711309D01*
X189538392Y-30830357D02*
X189728869Y-30830357D01*
X189609821Y-30663690D02*
X189609821Y-31092261D01*
X189633630Y-31139880D01*
X189681250Y-31163690D01*
X189728869Y-31163690D01*
X189966964Y-31163690D02*
X189919345Y-31139880D01*
X189895535Y-31116071D01*
X189871726Y-31068452D01*
X189871726Y-30925595D01*
X189895535Y-30877976D01*
X189919345Y-30854166D01*
X189966964Y-30830357D01*
X190038392Y-30830357D01*
X190086011Y-30854166D01*
X190109821Y-30877976D01*
X190133630Y-30925595D01*
X190133630Y-31068452D01*
X190109821Y-31116071D01*
X190086011Y-31139880D01*
X190038392Y-31163690D01*
X189966964Y-31163690D01*
X190347916Y-31163690D02*
X190347916Y-30830357D01*
X190347916Y-30925595D02*
X190371726Y-30877976D01*
X190395535Y-30854166D01*
X190443154Y-30830357D01*
X190490773Y-30830357D01*
X190966964Y-30830357D02*
X191157440Y-30830357D01*
X191038392Y-30663690D02*
X191038392Y-31092261D01*
X191062202Y-31139880D01*
X191109821Y-31163690D01*
X191157440Y-31163690D01*
X191514583Y-31139880D02*
X191466964Y-31163690D01*
X191371726Y-31163690D01*
X191324107Y-31139880D01*
X191300297Y-31092261D01*
X191300297Y-30901785D01*
X191324107Y-30854166D01*
X191371726Y-30830357D01*
X191466964Y-30830357D01*
X191514583Y-30854166D01*
X191538392Y-30901785D01*
X191538392Y-30949404D01*
X191300297Y-30997023D01*
X191728869Y-31139880D02*
X191776488Y-31163690D01*
X191871726Y-31163690D01*
X191919345Y-31139880D01*
X191943154Y-31092261D01*
X191943154Y-31068452D01*
X191919345Y-31020833D01*
X191871726Y-30997023D01*
X191800297Y-30997023D01*
X191752678Y-30973214D01*
X191728869Y-30925595D01*
X191728869Y-30901785D01*
X191752678Y-30854166D01*
X191800297Y-30830357D01*
X191871726Y-30830357D01*
X191919345Y-30854166D01*
X192086011Y-30830357D02*
X192276488Y-30830357D01*
X192157440Y-30663690D02*
X192157440Y-31092261D01*
X192181250Y-31139880D01*
X192228869Y-31163690D01*
X192276488Y-31163690D01*
X192824107Y-31163690D02*
X192824107Y-30663690D01*
X192824107Y-30854166D02*
X192871726Y-30830357D01*
X192966964Y-30830357D01*
X193014583Y-30854166D01*
X193038392Y-30877976D01*
X193062202Y-30925595D01*
X193062202Y-31068452D01*
X193038392Y-31116071D01*
X193014583Y-31139880D01*
X192966964Y-31163690D01*
X192871726Y-31163690D01*
X192824107Y-31139880D01*
X193347916Y-31163690D02*
X193300297Y-31139880D01*
X193276488Y-31116071D01*
X193252678Y-31068452D01*
X193252678Y-30925595D01*
X193276488Y-30877976D01*
X193300297Y-30854166D01*
X193347916Y-30830357D01*
X193419345Y-30830357D01*
X193466964Y-30854166D01*
X193490773Y-30877976D01*
X193514583Y-30925595D01*
X193514583Y-31068452D01*
X193490773Y-31116071D01*
X193466964Y-31139880D01*
X193419345Y-31163690D01*
X193347916Y-31163690D01*
X193943154Y-31163690D02*
X193943154Y-30901785D01*
X193919345Y-30854166D01*
X193871726Y-30830357D01*
X193776488Y-30830357D01*
X193728869Y-30854166D01*
X193943154Y-31139880D02*
X193895535Y-31163690D01*
X193776488Y-31163690D01*
X193728869Y-31139880D01*
X193705059Y-31092261D01*
X193705059Y-31044642D01*
X193728869Y-30997023D01*
X193776488Y-30973214D01*
X193895535Y-30973214D01*
X193943154Y-30949404D01*
X194181250Y-31163690D02*
X194181250Y-30830357D01*
X194181250Y-30925595D02*
X194205059Y-30877976D01*
X194228869Y-30854166D01*
X194276488Y-30830357D01*
X194324107Y-30830357D01*
X194705059Y-31163690D02*
X194705059Y-30663690D01*
X194705059Y-31139880D02*
X194657440Y-31163690D01*
X194562202Y-31163690D01*
X194514583Y-31139880D01*
X194490773Y-31116071D01*
X194466964Y-31068452D01*
X194466964Y-30925595D01*
X194490773Y-30877976D01*
X194514583Y-30854166D01*
X194562202Y-30830357D01*
X194657440Y-30830357D01*
X194705059Y-30854166D01*
D12*
X200925000Y-55000000D02*
X186925000Y-55000000D01*
X186925000Y-55000000D02*
X186925000Y-35000000D01*
X186925000Y-35000000D02*
X200925000Y-35000000D01*
X200925000Y-35000000D02*
X200925000Y-55000000D01*
X214220920Y-49401200D02*
X214220920Y-55598800D01*
X219819080Y-49401200D02*
X214220920Y-49401200D01*
X219819080Y-55598800D02*
X219819080Y-49401200D01*
X214220920Y-55598800D02*
X219819080Y-55598800D01*
X214220920Y-49799980D02*
X219819080Y-49799980D01*
X217020000Y-55598800D02*
X217020000Y-55100960D01*
X219620960Y-55100960D02*
X219620960Y-55598800D01*
X214419040Y-55598800D02*
X214419040Y-55100960D01*
X219819080Y-55100960D02*
X214220920Y-55100960D01*
X214220920Y-34149040D02*
X219819080Y-34149040D01*
X219620960Y-33651200D02*
X219620960Y-34149040D01*
X214419040Y-34149040D02*
X214419040Y-33651200D01*
X217020000Y-33651200D02*
X217020000Y-34149040D01*
X219819080Y-39450020D02*
X214220920Y-39450020D01*
X219819080Y-33651200D02*
X214220920Y-33651200D01*
X214220920Y-33651200D02*
X214220920Y-39848800D01*
X214220920Y-39848800D02*
X219819080Y-39848800D01*
X219819080Y-39848800D02*
X219819080Y-33651200D01*
D13*
X216650000Y-40610000D02*
X218040000Y-40610000D01*
X216650000Y-42000000D02*
X216650000Y-40610000D01*
X219430000Y-43270000D02*
X216650000Y-43270000D01*
X219430000Y-48470000D02*
X219430000Y-43270000D01*
X216650000Y-48470000D02*
X219430000Y-48470000D01*
X216650000Y-43270000D02*
X216650000Y-48470000D01*
D12*
X221242380Y-56503047D02*
X221242380Y-56979238D01*
X220242380Y-56979238D01*
X221242380Y-56026857D02*
X221194761Y-56122095D01*
X221147142Y-56169714D01*
X221051904Y-56217333D01*
X220766190Y-56217333D01*
X220670952Y-56169714D01*
X220623333Y-56122095D01*
X220575714Y-56026857D01*
X220575714Y-55884000D01*
X220623333Y-55788761D01*
X220670952Y-55741142D01*
X220766190Y-55693523D01*
X221051904Y-55693523D01*
X221147142Y-55741142D01*
X221194761Y-55788761D01*
X221242380Y-55884000D01*
X221242380Y-56026857D01*
X220575714Y-54836380D02*
X221385238Y-54836380D01*
X221480476Y-54884000D01*
X221528095Y-54931619D01*
X221575714Y-55026857D01*
X221575714Y-55169714D01*
X221528095Y-55264952D01*
X221194761Y-54836380D02*
X221242380Y-54931619D01*
X221242380Y-55122095D01*
X221194761Y-55217333D01*
X221147142Y-55264952D01*
X221051904Y-55312571D01*
X220766190Y-55312571D01*
X220670952Y-55264952D01*
X220623333Y-55217333D01*
X220575714Y-55122095D01*
X220575714Y-54931619D01*
X220623333Y-54836380D01*
X221242380Y-54360190D02*
X220575714Y-54360190D01*
X220242380Y-54360190D02*
X220290000Y-54407809D01*
X220337619Y-54360190D01*
X220290000Y-54312571D01*
X220242380Y-54360190D01*
X220337619Y-54360190D01*
X221194761Y-53455428D02*
X221242380Y-53550666D01*
X221242380Y-53741142D01*
X221194761Y-53836380D01*
X221147142Y-53884000D01*
X221051904Y-53931619D01*
X220766190Y-53931619D01*
X220670952Y-53884000D01*
X220623333Y-53836380D01*
X220575714Y-53741142D01*
X220575714Y-53550666D01*
X220623333Y-53455428D01*
X221337619Y-53264952D02*
X221337619Y-52503047D01*
X221194761Y-52312571D02*
X221242380Y-52169714D01*
X221242380Y-51931619D01*
X221194761Y-51836380D01*
X221147142Y-51788761D01*
X221051904Y-51741142D01*
X220956666Y-51741142D01*
X220861428Y-51788761D01*
X220813809Y-51836380D01*
X220766190Y-51931619D01*
X220718571Y-52122095D01*
X220670952Y-52217333D01*
X220623333Y-52264952D01*
X220528095Y-52312571D01*
X220432857Y-52312571D01*
X220337619Y-52264952D01*
X220290000Y-52217333D01*
X220242380Y-52122095D01*
X220242380Y-51884000D01*
X220290000Y-51741142D01*
X220575714Y-50884000D02*
X221242380Y-50884000D01*
X220575714Y-51312571D02*
X221099523Y-51312571D01*
X221194761Y-51264952D01*
X221242380Y-51169714D01*
X221242380Y-51026857D01*
X221194761Y-50931619D01*
X221147142Y-50884000D01*
X220575714Y-50407809D02*
X221575714Y-50407809D01*
X220623333Y-50407809D02*
X220575714Y-50312571D01*
X220575714Y-50122095D01*
X220623333Y-50026857D01*
X220670952Y-49979238D01*
X220766190Y-49931619D01*
X221051904Y-49931619D01*
X221147142Y-49979238D01*
X221194761Y-50026857D01*
X221242380Y-50122095D01*
X221242380Y-50312571D01*
X221194761Y-50407809D01*
X220575714Y-49503047D02*
X221575714Y-49503047D01*
X220623333Y-49503047D02*
X220575714Y-49407809D01*
X220575714Y-49217333D01*
X220623333Y-49122095D01*
X220670952Y-49074476D01*
X220766190Y-49026857D01*
X221051904Y-49026857D01*
X221147142Y-49074476D01*
X221194761Y-49122095D01*
X221242380Y-49217333D01*
X221242380Y-49407809D01*
X221194761Y-49503047D01*
X221242380Y-48455428D02*
X221194761Y-48550666D01*
X221099523Y-48598285D01*
X220242380Y-48598285D01*
X220575714Y-48169714D02*
X221242380Y-47931619D01*
X220575714Y-47693523D02*
X221242380Y-47931619D01*
X221480476Y-48026857D01*
X221528095Y-48074476D01*
X221575714Y-48169714D01*
X220718571Y-42651904D02*
X220766190Y-42509047D01*
X220813809Y-42461428D01*
X220909047Y-42413809D01*
X221051904Y-42413809D01*
X221147142Y-42461428D01*
X221194761Y-42509047D01*
X221242380Y-42604285D01*
X221242380Y-42985238D01*
X220242380Y-42985238D01*
X220242380Y-42651904D01*
X220290000Y-42556666D01*
X220337619Y-42509047D01*
X220432857Y-42461428D01*
X220528095Y-42461428D01*
X220623333Y-42509047D01*
X220670952Y-42556666D01*
X220718571Y-42651904D01*
X220718571Y-42985238D01*
X221242380Y-41556666D02*
X220718571Y-41556666D01*
X220623333Y-41604285D01*
X220575714Y-41699523D01*
X220575714Y-41890000D01*
X220623333Y-41985238D01*
X221194761Y-41556666D02*
X221242380Y-41651904D01*
X221242380Y-41890000D01*
X221194761Y-41985238D01*
X221099523Y-42032857D01*
X221004285Y-42032857D01*
X220909047Y-41985238D01*
X220861428Y-41890000D01*
X220861428Y-41651904D01*
X220813809Y-41556666D01*
X221194761Y-40651904D02*
X221242380Y-40747142D01*
X221242380Y-40937619D01*
X221194761Y-41032857D01*
X221147142Y-41080476D01*
X221051904Y-41128095D01*
X220766190Y-41128095D01*
X220670952Y-41080476D01*
X220623333Y-41032857D01*
X220575714Y-40937619D01*
X220575714Y-40747142D01*
X220623333Y-40651904D01*
X221242380Y-40223333D02*
X220242380Y-40223333D01*
X220861428Y-40128095D02*
X221242380Y-39842380D01*
X220575714Y-39842380D02*
X220956666Y-40223333D01*
X221242380Y-39270952D02*
X221194761Y-39366190D01*
X221099523Y-39413809D01*
X220242380Y-39413809D01*
X221242380Y-38890000D02*
X220575714Y-38890000D01*
X220242380Y-38890000D02*
X220290000Y-38937619D01*
X220337619Y-38890000D01*
X220290000Y-38842380D01*
X220242380Y-38890000D01*
X220337619Y-38890000D01*
X220575714Y-37985238D02*
X221385238Y-37985238D01*
X221480476Y-38032857D01*
X221528095Y-38080476D01*
X221575714Y-38175714D01*
X221575714Y-38318571D01*
X221528095Y-38413809D01*
X221194761Y-37985238D02*
X221242380Y-38080476D01*
X221242380Y-38270952D01*
X221194761Y-38366190D01*
X221147142Y-38413809D01*
X221051904Y-38461428D01*
X220766190Y-38461428D01*
X220670952Y-38413809D01*
X220623333Y-38366190D01*
X220575714Y-38270952D01*
X220575714Y-38080476D01*
X220623333Y-37985238D01*
X221242380Y-37509047D02*
X220242380Y-37509047D01*
X221242380Y-37080476D02*
X220718571Y-37080476D01*
X220623333Y-37128095D01*
X220575714Y-37223333D01*
X220575714Y-37366190D01*
X220623333Y-37461428D01*
X220670952Y-37509047D01*
X220575714Y-36747142D02*
X220575714Y-36366190D01*
X220242380Y-36604285D02*
X221099523Y-36604285D01*
X221194761Y-36556666D01*
X221242380Y-36461428D01*
X221242380Y-36366190D01*
X221337619Y-36270952D02*
X221337619Y-35509047D01*
X221194761Y-35318571D02*
X221242380Y-35175714D01*
X221242380Y-34937619D01*
X221194761Y-34842380D01*
X221147142Y-34794761D01*
X221051904Y-34747142D01*
X220956666Y-34747142D01*
X220861428Y-34794761D01*
X220813809Y-34842380D01*
X220766190Y-34937619D01*
X220718571Y-35128095D01*
X220670952Y-35223333D01*
X220623333Y-35270952D01*
X220528095Y-35318571D01*
X220432857Y-35318571D01*
X220337619Y-35270952D01*
X220290000Y-35223333D01*
X220242380Y-35128095D01*
X220242380Y-34890000D01*
X220290000Y-34747142D01*
X220575714Y-33890000D02*
X221242380Y-33890000D01*
X220575714Y-34318571D02*
X221099523Y-34318571D01*
X221194761Y-34270952D01*
X221242380Y-34175714D01*
X221242380Y-34032857D01*
X221194761Y-33937619D01*
X221147142Y-33890000D01*
X220575714Y-33413809D02*
X221575714Y-33413809D01*
X220623333Y-33413809D02*
X220575714Y-33318571D01*
X220575714Y-33128095D01*
X220623333Y-33032857D01*
X220670952Y-32985238D01*
X220766190Y-32937619D01*
X221051904Y-32937619D01*
X221147142Y-32985238D01*
X221194761Y-33032857D01*
X221242380Y-33128095D01*
X221242380Y-33318571D01*
X221194761Y-33413809D01*
X220575714Y-32509047D02*
X221575714Y-32509047D01*
X220623333Y-32509047D02*
X220575714Y-32413809D01*
X220575714Y-32223333D01*
X220623333Y-32128095D01*
X220670952Y-32080476D01*
X220766190Y-32032857D01*
X221051904Y-32032857D01*
X221147142Y-32080476D01*
X221194761Y-32128095D01*
X221242380Y-32223333D01*
X221242380Y-32413809D01*
X221194761Y-32509047D01*
X221242380Y-31461428D02*
X221194761Y-31556666D01*
X221099523Y-31604285D01*
X220242380Y-31604285D01*
X220575714Y-31175714D02*
X221242380Y-30937619D01*
X220575714Y-30699523D02*
X221242380Y-30937619D01*
X221480476Y-31032857D01*
X221528095Y-31080476D01*
X221575714Y-31175714D01*
M02*
