G04 #@! TF.GenerationSoftware,KiCad,Pcbnew,no-vcs-found-be10de8~57~ubuntu16.10.1*
G04 #@! TF.CreationDate,2017-03-16T12:00:26+01:00*
G04 #@! TF.ProjectId,reborn-plutonium-monitor,7265626F726E2D706C75746F6E69756D,rev?*
G04 #@! TF.FileFunction,Copper,L1,Top,Signal*
G04 #@! TF.FilePolarity,Positive*
%FSLAX46Y46*%
G04 Gerber Fmt 4.6, Leading zero omitted, Abs format (unit mm)*
G04 Created by KiCad (PCBNEW no-vcs-found-be10de8~57~ubuntu16.10.1) date Thu Mar 16 12:00:26 2017*
%MOMM*%
%LPD*%
G01*
G04 APERTURE LIST*
%ADD10C,0.100000*%
%ADD11C,0.125000*%
%ADD12O,1.700000X1.200000*%
%ADD13O,2.200000X1.200000*%
%ADD14C,1.000000*%
%ADD15R,1.998980X1.998980*%
%ADD16O,1.998980X1.998980*%
%ADD17O,1.700000X1.700000*%
%ADD18R,1.700000X1.700000*%
G04 APERTURE END LIST*
D10*
D11*
X216590952Y-31774285D02*
X216210000Y-31774285D01*
X216400476Y-31583809D02*
X216400476Y-31964761D01*
X215710000Y-31583809D02*
X215995714Y-31583809D01*
X215852857Y-31583809D02*
X215852857Y-32083809D01*
X215900476Y-32012380D01*
X215948095Y-31964761D01*
X215995714Y-31940952D01*
X215519523Y-32036190D02*
X215495714Y-32060000D01*
X215448095Y-32083809D01*
X215329047Y-32083809D01*
X215281428Y-32060000D01*
X215257619Y-32036190D01*
X215233809Y-31988571D01*
X215233809Y-31940952D01*
X215257619Y-31869523D01*
X215543333Y-31583809D01*
X215233809Y-31583809D01*
X215090952Y-32083809D02*
X214924285Y-31583809D01*
X214757619Y-32083809D01*
X218630952Y-32060000D02*
X218678571Y-32083809D01*
X218750000Y-32083809D01*
X218821428Y-32060000D01*
X218869047Y-32012380D01*
X218892857Y-31964761D01*
X218916666Y-31869523D01*
X218916666Y-31798095D01*
X218892857Y-31702857D01*
X218869047Y-31655238D01*
X218821428Y-31607619D01*
X218750000Y-31583809D01*
X218702380Y-31583809D01*
X218630952Y-31607619D01*
X218607142Y-31631428D01*
X218607142Y-31798095D01*
X218702380Y-31798095D01*
X218392857Y-31583809D02*
X218392857Y-32083809D01*
X218107142Y-31583809D01*
X218107142Y-32083809D01*
X217869047Y-31583809D02*
X217869047Y-32083809D01*
X217750000Y-32083809D01*
X217678571Y-32060000D01*
X217630952Y-32012380D01*
X217607142Y-31964761D01*
X217583333Y-31869523D01*
X217583333Y-31798095D01*
X217607142Y-31702857D01*
X217630952Y-31655238D01*
X217678571Y-31607619D01*
X217750000Y-31583809D01*
X217869047Y-31583809D01*
X214829047Y-57237714D02*
X215210000Y-57237714D01*
X215019523Y-57428190D02*
X215019523Y-57047238D01*
X215400476Y-56928190D02*
X215710000Y-56928190D01*
X215543333Y-57118666D01*
X215614761Y-57118666D01*
X215662380Y-57142476D01*
X215686190Y-57166285D01*
X215710000Y-57213904D01*
X215710000Y-57332952D01*
X215686190Y-57380571D01*
X215662380Y-57404380D01*
X215614761Y-57428190D01*
X215471904Y-57428190D01*
X215424285Y-57404380D01*
X215400476Y-57380571D01*
X215852857Y-56928190D02*
X216019523Y-57428190D01*
X216186190Y-56928190D01*
X216305238Y-56928190D02*
X216614761Y-56928190D01*
X216448095Y-57118666D01*
X216519523Y-57118666D01*
X216567142Y-57142476D01*
X216590952Y-57166285D01*
X216614761Y-57213904D01*
X216614761Y-57332952D01*
X216590952Y-57380571D01*
X216567142Y-57404380D01*
X216519523Y-57428190D01*
X216376666Y-57428190D01*
X216329047Y-57404380D01*
X216305238Y-57380571D01*
X217869047Y-56952000D02*
X217821428Y-56928190D01*
X217750000Y-56928190D01*
X217678571Y-56952000D01*
X217630952Y-56999619D01*
X217607142Y-57047238D01*
X217583333Y-57142476D01*
X217583333Y-57213904D01*
X217607142Y-57309142D01*
X217630952Y-57356761D01*
X217678571Y-57404380D01*
X217750000Y-57428190D01*
X217797619Y-57428190D01*
X217869047Y-57404380D01*
X217892857Y-57380571D01*
X217892857Y-57213904D01*
X217797619Y-57213904D01*
X218107142Y-57428190D02*
X218107142Y-56928190D01*
X218392857Y-57428190D01*
X218392857Y-56928190D01*
X218630952Y-57428190D02*
X218630952Y-56928190D01*
X218750000Y-56928190D01*
X218821428Y-56952000D01*
X218869047Y-56999619D01*
X218892857Y-57047238D01*
X218916666Y-57142476D01*
X218916666Y-57213904D01*
X218892857Y-57309142D01*
X218869047Y-57356761D01*
X218821428Y-57404380D01*
X218750000Y-57428190D01*
X218630952Y-57428190D01*
X215025892Y-46750000D02*
X214978273Y-46726190D01*
X214906845Y-46726190D01*
X214835416Y-46750000D01*
X214787797Y-46797619D01*
X214763988Y-46845238D01*
X214740178Y-46940476D01*
X214740178Y-47011904D01*
X214763988Y-47107142D01*
X214787797Y-47154761D01*
X214835416Y-47202380D01*
X214906845Y-47226190D01*
X214954464Y-47226190D01*
X215025892Y-47202380D01*
X215049702Y-47178571D01*
X215049702Y-47011904D01*
X214954464Y-47011904D01*
X215263988Y-47226190D02*
X215263988Y-46726190D01*
X215549702Y-47226190D01*
X215549702Y-46726190D01*
X215787797Y-47226190D02*
X215787797Y-46726190D01*
X215906845Y-46726190D01*
X215978273Y-46750000D01*
X216025892Y-46797619D01*
X216049702Y-46845238D01*
X216073511Y-46940476D01*
X216073511Y-47011904D01*
X216049702Y-47107142D01*
X216025892Y-47154761D01*
X215978273Y-47202380D01*
X215906845Y-47226190D01*
X215787797Y-47226190D01*
X211478273Y-44464285D02*
X211549702Y-44488095D01*
X211573511Y-44511904D01*
X211597321Y-44559523D01*
X211597321Y-44630952D01*
X211573511Y-44678571D01*
X211549702Y-44702380D01*
X211502083Y-44726190D01*
X211311607Y-44726190D01*
X211311607Y-44226190D01*
X211478273Y-44226190D01*
X211525892Y-44250000D01*
X211549702Y-44273809D01*
X211573511Y-44321428D01*
X211573511Y-44369047D01*
X211549702Y-44416666D01*
X211525892Y-44440476D01*
X211478273Y-44464285D01*
X211311607Y-44464285D01*
X212025892Y-44726190D02*
X212025892Y-44464285D01*
X212002083Y-44416666D01*
X211954464Y-44392857D01*
X211859226Y-44392857D01*
X211811607Y-44416666D01*
X212025892Y-44702380D02*
X211978273Y-44726190D01*
X211859226Y-44726190D01*
X211811607Y-44702380D01*
X211787797Y-44654761D01*
X211787797Y-44607142D01*
X211811607Y-44559523D01*
X211859226Y-44535714D01*
X211978273Y-44535714D01*
X212025892Y-44511904D01*
X212478273Y-44702380D02*
X212430654Y-44726190D01*
X212335416Y-44726190D01*
X212287797Y-44702380D01*
X212263988Y-44678571D01*
X212240178Y-44630952D01*
X212240178Y-44488095D01*
X212263988Y-44440476D01*
X212287797Y-44416666D01*
X212335416Y-44392857D01*
X212430654Y-44392857D01*
X212478273Y-44416666D01*
X212692559Y-44726190D02*
X212692559Y-44226190D01*
X212740178Y-44535714D02*
X212883035Y-44726190D01*
X212883035Y-44392857D02*
X212692559Y-44583333D01*
X213335416Y-44726190D02*
X213097321Y-44726190D01*
X213097321Y-44226190D01*
X213502083Y-44726190D02*
X213502083Y-44392857D01*
X213502083Y-44226190D02*
X213478273Y-44250000D01*
X213502083Y-44273809D01*
X213525892Y-44250000D01*
X213502083Y-44226190D01*
X213502083Y-44273809D01*
X213954464Y-44392857D02*
X213954464Y-44797619D01*
X213930654Y-44845238D01*
X213906845Y-44869047D01*
X213859226Y-44892857D01*
X213787797Y-44892857D01*
X213740178Y-44869047D01*
X213954464Y-44702380D02*
X213906845Y-44726190D01*
X213811607Y-44726190D01*
X213763988Y-44702380D01*
X213740178Y-44678571D01*
X213716369Y-44630952D01*
X213716369Y-44488095D01*
X213740178Y-44440476D01*
X213763988Y-44416666D01*
X213811607Y-44392857D01*
X213906845Y-44392857D01*
X213954464Y-44416666D01*
X214192559Y-44726190D02*
X214192559Y-44226190D01*
X214406845Y-44726190D02*
X214406845Y-44464285D01*
X214383035Y-44416666D01*
X214335416Y-44392857D01*
X214263988Y-44392857D01*
X214216369Y-44416666D01*
X214192559Y-44440476D01*
X214573511Y-44392857D02*
X214763988Y-44392857D01*
X214644940Y-44226190D02*
X214644940Y-44654761D01*
X214668750Y-44702380D01*
X214716369Y-44726190D01*
X214763988Y-44726190D01*
X214811607Y-44773809D02*
X215192559Y-44773809D01*
X215311607Y-44464285D02*
X215478273Y-44464285D01*
X215549702Y-44726190D02*
X215311607Y-44726190D01*
X215311607Y-44226190D01*
X215549702Y-44226190D01*
X215763988Y-44726190D02*
X215763988Y-44226190D01*
X216049702Y-44726190D01*
X216049702Y-44226190D01*
X210811607Y-41964285D02*
X210883035Y-41988095D01*
X210906845Y-42011904D01*
X210930654Y-42059523D01*
X210930654Y-42130952D01*
X210906845Y-42178571D01*
X210883035Y-42202380D01*
X210835416Y-42226190D01*
X210644940Y-42226190D01*
X210644940Y-41726190D01*
X210811607Y-41726190D01*
X210859226Y-41750000D01*
X210883035Y-41773809D01*
X210906845Y-41821428D01*
X210906845Y-41869047D01*
X210883035Y-41916666D01*
X210859226Y-41940476D01*
X210811607Y-41964285D01*
X210644940Y-41964285D01*
X211359226Y-42226190D02*
X211359226Y-41964285D01*
X211335416Y-41916666D01*
X211287797Y-41892857D01*
X211192559Y-41892857D01*
X211144940Y-41916666D01*
X211359226Y-42202380D02*
X211311607Y-42226190D01*
X211192559Y-42226190D01*
X211144940Y-42202380D01*
X211121130Y-42154761D01*
X211121130Y-42107142D01*
X211144940Y-42059523D01*
X211192559Y-42035714D01*
X211311607Y-42035714D01*
X211359226Y-42011904D01*
X211811607Y-42202380D02*
X211763988Y-42226190D01*
X211668750Y-42226190D01*
X211621130Y-42202380D01*
X211597321Y-42178571D01*
X211573511Y-42130952D01*
X211573511Y-41988095D01*
X211597321Y-41940476D01*
X211621130Y-41916666D01*
X211668750Y-41892857D01*
X211763988Y-41892857D01*
X211811607Y-41916666D01*
X212025892Y-42226190D02*
X212025892Y-41726190D01*
X212073511Y-42035714D02*
X212216369Y-42226190D01*
X212216369Y-41892857D02*
X212025892Y-42083333D01*
X212668750Y-42226190D02*
X212430654Y-42226190D01*
X212430654Y-41726190D01*
X212835416Y-42226190D02*
X212835416Y-41892857D01*
X212835416Y-41726190D02*
X212811607Y-41750000D01*
X212835416Y-41773809D01*
X212859226Y-41750000D01*
X212835416Y-41726190D01*
X212835416Y-41773809D01*
X213287797Y-41892857D02*
X213287797Y-42297619D01*
X213263988Y-42345238D01*
X213240178Y-42369047D01*
X213192559Y-42392857D01*
X213121130Y-42392857D01*
X213073511Y-42369047D01*
X213287797Y-42202380D02*
X213240178Y-42226190D01*
X213144940Y-42226190D01*
X213097321Y-42202380D01*
X213073511Y-42178571D01*
X213049702Y-42130952D01*
X213049702Y-41988095D01*
X213073511Y-41940476D01*
X213097321Y-41916666D01*
X213144940Y-41892857D01*
X213240178Y-41892857D01*
X213287797Y-41916666D01*
X213525892Y-42226190D02*
X213525892Y-41726190D01*
X213740178Y-42226190D02*
X213740178Y-41964285D01*
X213716369Y-41916666D01*
X213668750Y-41892857D01*
X213597321Y-41892857D01*
X213549702Y-41916666D01*
X213525892Y-41940476D01*
X213906845Y-41892857D02*
X214097321Y-41892857D01*
X213978273Y-41726190D02*
X213978273Y-42154761D01*
X214002083Y-42202380D01*
X214049702Y-42226190D01*
X214097321Y-42226190D01*
X214144940Y-42273809D02*
X214525892Y-42273809D01*
X214644940Y-42226190D02*
X214644940Y-41726190D01*
X214835416Y-41726190D01*
X214883035Y-41750000D01*
X214906845Y-41773809D01*
X214930654Y-41821428D01*
X214930654Y-41892857D01*
X214906845Y-41940476D01*
X214883035Y-41964285D01*
X214835416Y-41988095D01*
X214644940Y-41988095D01*
X215097321Y-41726190D02*
X215216369Y-42226190D01*
X215311607Y-41869047D01*
X215406845Y-42226190D01*
X215525892Y-41726190D01*
X215716369Y-42226190D02*
X215716369Y-41726190D01*
X215883035Y-42083333D01*
X216049702Y-41726190D01*
X216049702Y-42226190D01*
D12*
X191100000Y-36750000D03*
X191100000Y-53250000D03*
D13*
X197880000Y-36750000D03*
X197880000Y-53250000D03*
D14*
X199930000Y-45000000D03*
X199930000Y-43500000D03*
X199930000Y-42000000D03*
X199930000Y-46500000D03*
X199930000Y-48000000D03*
X199930000Y-49500000D03*
X198430000Y-44500000D03*
X198430000Y-43000000D03*
X198430000Y-41500000D03*
X198430000Y-46000000D03*
X198430000Y-47500000D03*
X198430000Y-49000000D03*
X198430000Y-50500000D03*
X196930000Y-44000000D03*
X196930000Y-42500000D03*
X196930000Y-41000000D03*
X196930000Y-45500000D03*
X196930000Y-47000000D03*
X196930000Y-48500000D03*
X196930000Y-50000000D03*
D15*
X215750000Y-52500000D03*
D16*
X218290000Y-52500000D03*
X215750000Y-36750000D03*
D15*
X218290000Y-36750000D03*
D17*
X218040000Y-47080000D03*
X218040000Y-44540000D03*
D18*
X218040000Y-42000000D03*
D10*
G36*
X221675000Y-59425000D02*
X186825000Y-59425000D01*
X186825000Y-56560750D01*
X214397500Y-56560750D01*
X214397500Y-57935750D01*
X217022500Y-57935750D01*
X217022500Y-56560750D01*
X217175595Y-56560750D01*
X217175595Y-57935750D01*
X219324405Y-57935750D01*
X219324405Y-56560750D01*
X217175595Y-56560750D01*
X217022500Y-56560750D01*
X214397500Y-56560750D01*
X186825000Y-56560750D01*
X186825000Y-53250000D01*
X189978450Y-53250000D01*
X190043152Y-53575281D01*
X190227409Y-53851041D01*
X190503169Y-54035298D01*
X190828450Y-54100000D01*
X191371550Y-54100000D01*
X191696831Y-54035298D01*
X191972591Y-53851041D01*
X192156848Y-53575281D01*
X192221550Y-53250000D01*
X196503552Y-53250000D01*
X196568254Y-53575281D01*
X196752511Y-53851041D01*
X197028271Y-54035298D01*
X197353552Y-54100000D01*
X198406448Y-54100000D01*
X198731729Y-54035298D01*
X199007489Y-53851041D01*
X199191746Y-53575281D01*
X199256448Y-53250000D01*
X199191746Y-52924719D01*
X199007489Y-52648959D01*
X198731729Y-52464702D01*
X198406448Y-52400000D01*
X197353552Y-52400000D01*
X197028271Y-52464702D01*
X196752511Y-52648959D01*
X196568254Y-52924719D01*
X196503552Y-53250000D01*
X192221550Y-53250000D01*
X192156848Y-52924719D01*
X191972591Y-52648959D01*
X191696831Y-52464702D01*
X191371550Y-52400000D01*
X190828450Y-52400000D01*
X190503169Y-52464702D01*
X190227409Y-52648959D01*
X190043152Y-52924719D01*
X189978450Y-53250000D01*
X186825000Y-53250000D01*
X186825000Y-51500510D01*
X214495613Y-51500510D01*
X214495613Y-53499490D01*
X214515016Y-53597035D01*
X214570271Y-53679729D01*
X214652965Y-53734984D01*
X214750510Y-53754387D01*
X216749490Y-53754387D01*
X216847035Y-53734984D01*
X216929729Y-53679729D01*
X216984984Y-53597035D01*
X217004387Y-53499490D01*
X217004387Y-51500510D01*
X216984984Y-51402965D01*
X216929729Y-51320271D01*
X216847035Y-51265016D01*
X216749490Y-51245613D01*
X214750510Y-51245613D01*
X214652965Y-51265016D01*
X214570271Y-51320271D01*
X214515016Y-51402965D01*
X214495613Y-51500510D01*
X186825000Y-51500510D01*
X186825000Y-46148530D01*
X197679870Y-46148530D01*
X197793811Y-46424286D01*
X198004605Y-46635448D01*
X198280161Y-46749869D01*
X198281470Y-46749870D01*
X198005714Y-46863811D01*
X197794552Y-47074605D01*
X197680131Y-47350161D01*
X197679870Y-47648530D01*
X197793811Y-47924286D01*
X198004605Y-48135448D01*
X198280161Y-48249869D01*
X198281470Y-48249870D01*
X198005714Y-48363811D01*
X197794552Y-48574605D01*
X197680131Y-48850161D01*
X197679870Y-49148530D01*
X197793811Y-49424286D01*
X198004605Y-49635448D01*
X198280161Y-49749869D01*
X198281470Y-49749870D01*
X198005714Y-49863811D01*
X197794552Y-50074605D01*
X197680131Y-50350161D01*
X197679870Y-50648530D01*
X197793811Y-50924286D01*
X198004605Y-51135448D01*
X198280161Y-51249869D01*
X198578530Y-51250130D01*
X198854286Y-51136189D01*
X199065448Y-50925395D01*
X199179869Y-50649839D01*
X199180130Y-50351470D01*
X199066189Y-50075714D01*
X198855395Y-49864552D01*
X198579839Y-49750131D01*
X198578530Y-49750130D01*
X198854286Y-49636189D01*
X199065448Y-49425395D01*
X199179869Y-49149839D01*
X199180130Y-48851470D01*
X199066189Y-48575714D01*
X198855395Y-48364552D01*
X198579839Y-48250131D01*
X198578530Y-48250130D01*
X198854286Y-48136189D01*
X199065448Y-47925395D01*
X199179869Y-47649839D01*
X199180130Y-47351470D01*
X199066189Y-47075714D01*
X198855395Y-46864552D01*
X198579839Y-46750131D01*
X198578530Y-46750130D01*
X198854286Y-46636189D01*
X199065448Y-46425395D01*
X199179869Y-46149839D01*
X199180130Y-45851470D01*
X199066189Y-45575714D01*
X198855395Y-45364552D01*
X198579839Y-45250131D01*
X198281470Y-45249870D01*
X198005714Y-45363811D01*
X197794552Y-45574605D01*
X197680131Y-45850161D01*
X197679870Y-46148530D01*
X186825000Y-46148530D01*
X186825000Y-45188138D01*
X189249835Y-45188138D01*
X189394159Y-45537429D01*
X189661165Y-45804902D01*
X190010204Y-45949835D01*
X190388138Y-45950165D01*
X190737429Y-45805841D01*
X191004902Y-45538835D01*
X191149835Y-45189796D01*
X191150165Y-44811862D01*
X191005841Y-44462571D01*
X190738835Y-44195098D01*
X190389796Y-44050165D01*
X190011862Y-44049835D01*
X189662571Y-44194159D01*
X189395098Y-44461165D01*
X189250165Y-44810204D01*
X189249835Y-45188138D01*
X186825000Y-45188138D01*
X186825000Y-41148530D01*
X196179870Y-41148530D01*
X196293811Y-41424286D01*
X196504605Y-41635448D01*
X196780161Y-41749869D01*
X196781470Y-41749870D01*
X196505714Y-41863811D01*
X196294552Y-42074605D01*
X196180131Y-42350161D01*
X196179870Y-42648530D01*
X196293811Y-42924286D01*
X196504605Y-43135448D01*
X196780161Y-43249869D01*
X197078530Y-43250130D01*
X197354286Y-43136189D01*
X197565448Y-42925395D01*
X197679869Y-42649839D01*
X197680130Y-42351470D01*
X197566189Y-42075714D01*
X197355395Y-41864552D01*
X197079839Y-41750131D01*
X197078530Y-41750130D01*
X197324418Y-41648530D01*
X197679870Y-41648530D01*
X197793811Y-41924286D01*
X198004605Y-42135448D01*
X198280161Y-42249869D01*
X198578530Y-42250130D01*
X198824418Y-42148530D01*
X199179870Y-42148530D01*
X199293811Y-42424286D01*
X199504605Y-42635448D01*
X199780161Y-42749869D01*
X199781470Y-42749870D01*
X199505714Y-42863811D01*
X199294552Y-43074605D01*
X199180131Y-43350161D01*
X199179870Y-43648530D01*
X199293811Y-43924286D01*
X199504605Y-44135448D01*
X199780161Y-44249869D01*
X199781470Y-44249870D01*
X199505714Y-44363811D01*
X199294552Y-44574605D01*
X199180131Y-44850161D01*
X199179870Y-45148530D01*
X199293811Y-45424286D01*
X199504605Y-45635448D01*
X199780161Y-45749869D01*
X199781470Y-45749870D01*
X199505714Y-45863811D01*
X199294552Y-46074605D01*
X199180131Y-46350161D01*
X199179870Y-46648530D01*
X199293811Y-46924286D01*
X199504605Y-47135448D01*
X199780161Y-47249869D01*
X199781470Y-47249870D01*
X199505714Y-47363811D01*
X199294552Y-47574605D01*
X199180131Y-47850161D01*
X199179870Y-48148530D01*
X199293811Y-48424286D01*
X199504605Y-48635448D01*
X199780161Y-48749869D01*
X199781470Y-48749870D01*
X199505714Y-48863811D01*
X199294552Y-49074605D01*
X199180131Y-49350161D01*
X199179870Y-49648530D01*
X199293811Y-49924286D01*
X199504605Y-50135448D01*
X199780161Y-50249869D01*
X200078530Y-50250130D01*
X200354286Y-50136189D01*
X200565448Y-49925395D01*
X200679869Y-49649839D01*
X200680130Y-49351470D01*
X200566189Y-49075714D01*
X200355395Y-48864552D01*
X200079839Y-48750131D01*
X200078530Y-48750130D01*
X200354286Y-48636189D01*
X200565448Y-48425395D01*
X200679869Y-48149839D01*
X200680130Y-47851470D01*
X200566189Y-47575714D01*
X200355395Y-47364552D01*
X200079839Y-47250131D01*
X200078530Y-47250130D01*
X200354286Y-47136189D01*
X200565448Y-46925395D01*
X200679869Y-46649839D01*
X200680123Y-46358750D01*
X214351190Y-46358750D01*
X214351190Y-47733750D01*
X216500000Y-47733750D01*
X216500000Y-46358750D01*
X214351190Y-46358750D01*
X200680123Y-46358750D01*
X200680130Y-46351470D01*
X200566189Y-46075714D01*
X200355395Y-45864552D01*
X200079839Y-45750131D01*
X200078530Y-45750130D01*
X200354286Y-45636189D01*
X200565448Y-45425395D01*
X200679869Y-45149839D01*
X200680130Y-44851470D01*
X200566189Y-44575714D01*
X200355395Y-44364552D01*
X200079839Y-44250131D01*
X200078530Y-44250130D01*
X200354286Y-44136189D01*
X200565448Y-43925395D01*
X200593121Y-43858750D01*
X210898810Y-43858750D01*
X210898810Y-45233750D01*
X216500000Y-45233750D01*
X216500000Y-44540000D01*
X216918450Y-44540000D01*
X217002183Y-44960952D01*
X217240633Y-45317817D01*
X217597498Y-45556267D01*
X218018450Y-45640000D01*
X218061550Y-45640000D01*
X218482502Y-45556267D01*
X218839367Y-45317817D01*
X219077817Y-44960952D01*
X219161550Y-44540000D01*
X219077817Y-44119048D01*
X218839367Y-43762183D01*
X218482502Y-43523733D01*
X218061550Y-43440000D01*
X218018450Y-43440000D01*
X217597498Y-43523733D01*
X217240633Y-43762183D01*
X217002183Y-44119048D01*
X216918450Y-44540000D01*
X216500000Y-44540000D01*
X216500000Y-43858750D01*
X210898810Y-43858750D01*
X200593121Y-43858750D01*
X200679869Y-43649839D01*
X200680130Y-43351470D01*
X200566189Y-43075714D01*
X200355395Y-42864552D01*
X200079839Y-42750131D01*
X200078530Y-42750130D01*
X200354286Y-42636189D01*
X200565448Y-42425395D01*
X200679869Y-42149839D01*
X200680130Y-41851470D01*
X200566189Y-41575714D01*
X200355395Y-41364552D01*
X200341423Y-41358750D01*
X210232143Y-41358750D01*
X210232143Y-42733750D01*
X216500000Y-42733750D01*
X216500000Y-41358750D01*
X210232143Y-41358750D01*
X200341423Y-41358750D01*
X200079839Y-41250131D01*
X199781470Y-41249870D01*
X199505714Y-41363811D01*
X199294552Y-41574605D01*
X199180131Y-41850161D01*
X199179870Y-42148530D01*
X198824418Y-42148530D01*
X198854286Y-42136189D01*
X199065448Y-41925395D01*
X199179869Y-41649839D01*
X199180130Y-41351470D01*
X199096884Y-41150000D01*
X216935103Y-41150000D01*
X216935103Y-42850000D01*
X216954506Y-42947545D01*
X217009761Y-43030239D01*
X217092455Y-43085494D01*
X217190000Y-43104897D01*
X218890000Y-43104897D01*
X218987545Y-43085494D01*
X219070239Y-43030239D01*
X219125494Y-42947545D01*
X219144897Y-42850000D01*
X219144897Y-41150000D01*
X219125494Y-41052455D01*
X219070239Y-40969761D01*
X218987545Y-40914506D01*
X218890000Y-40895103D01*
X217190000Y-40895103D01*
X217092455Y-40914506D01*
X217009761Y-40969761D01*
X216954506Y-41052455D01*
X216935103Y-41150000D01*
X199096884Y-41150000D01*
X199066189Y-41075714D01*
X198855395Y-40864552D01*
X198579839Y-40750131D01*
X198281470Y-40749870D01*
X198005714Y-40863811D01*
X197794552Y-41074605D01*
X197680131Y-41350161D01*
X197679870Y-41648530D01*
X197324418Y-41648530D01*
X197354286Y-41636189D01*
X197565448Y-41425395D01*
X197679869Y-41149839D01*
X197680130Y-40851470D01*
X197566189Y-40575714D01*
X197355395Y-40364552D01*
X197079839Y-40250131D01*
X196781470Y-40249870D01*
X196505714Y-40363811D01*
X196294552Y-40574605D01*
X196180131Y-40850161D01*
X196179870Y-41148530D01*
X186825000Y-41148530D01*
X186825000Y-36750000D01*
X189978450Y-36750000D01*
X190043152Y-37075281D01*
X190227409Y-37351041D01*
X190503169Y-37535298D01*
X190828450Y-37600000D01*
X191371550Y-37600000D01*
X191696831Y-37535298D01*
X191972591Y-37351041D01*
X192156848Y-37075281D01*
X192221550Y-36750000D01*
X196503552Y-36750000D01*
X196568254Y-37075281D01*
X196752511Y-37351041D01*
X197028271Y-37535298D01*
X197353552Y-37600000D01*
X198406448Y-37600000D01*
X198731729Y-37535298D01*
X199007489Y-37351041D01*
X199191746Y-37075281D01*
X199256448Y-36750000D01*
X214476031Y-36750000D01*
X214571143Y-37228159D01*
X214841998Y-37633523D01*
X215247362Y-37904378D01*
X215725521Y-37999490D01*
X215774479Y-37999490D01*
X216252638Y-37904378D01*
X216658002Y-37633523D01*
X216928857Y-37228159D01*
X217023969Y-36750000D01*
X216928857Y-36271841D01*
X216658002Y-35866477D01*
X216252638Y-35595622D01*
X215774479Y-35500510D01*
X215725521Y-35500510D01*
X215247362Y-35595622D01*
X214841998Y-35866477D01*
X214571143Y-36271841D01*
X214476031Y-36750000D01*
X199256448Y-36750000D01*
X199191746Y-36424719D01*
X199007489Y-36148959D01*
X198731729Y-35964702D01*
X198406448Y-35900000D01*
X197353552Y-35900000D01*
X197028271Y-35964702D01*
X196752511Y-36148959D01*
X196568254Y-36424719D01*
X196503552Y-36750000D01*
X192221550Y-36750000D01*
X192156848Y-36424719D01*
X191972591Y-36148959D01*
X191696831Y-35964702D01*
X191371550Y-35900000D01*
X190828450Y-35900000D01*
X190503169Y-35964702D01*
X190227409Y-36148959D01*
X190043152Y-36424719D01*
X189978450Y-36750000D01*
X186825000Y-36750000D01*
X186825000Y-31076250D01*
X214397500Y-31076250D01*
X214397500Y-32451250D01*
X217022500Y-32451250D01*
X217022500Y-31076250D01*
X217175595Y-31076250D01*
X217175595Y-32451250D01*
X219324405Y-32451250D01*
X219324405Y-31076250D01*
X217175595Y-31076250D01*
X217022500Y-31076250D01*
X214397500Y-31076250D01*
X186825000Y-31076250D01*
X186825000Y-29325000D01*
X221675000Y-29325000D01*
X221675000Y-59425000D01*
X221675000Y-59425000D01*
G37*
X221675000Y-59425000D02*
X186825000Y-59425000D01*
X186825000Y-56560750D01*
X214397500Y-56560750D01*
X214397500Y-57935750D01*
X217022500Y-57935750D01*
X217022500Y-56560750D01*
X217175595Y-56560750D01*
X217175595Y-57935750D01*
X219324405Y-57935750D01*
X219324405Y-56560750D01*
X217175595Y-56560750D01*
X217022500Y-56560750D01*
X214397500Y-56560750D01*
X186825000Y-56560750D01*
X186825000Y-53250000D01*
X189978450Y-53250000D01*
X190043152Y-53575281D01*
X190227409Y-53851041D01*
X190503169Y-54035298D01*
X190828450Y-54100000D01*
X191371550Y-54100000D01*
X191696831Y-54035298D01*
X191972591Y-53851041D01*
X192156848Y-53575281D01*
X192221550Y-53250000D01*
X196503552Y-53250000D01*
X196568254Y-53575281D01*
X196752511Y-53851041D01*
X197028271Y-54035298D01*
X197353552Y-54100000D01*
X198406448Y-54100000D01*
X198731729Y-54035298D01*
X199007489Y-53851041D01*
X199191746Y-53575281D01*
X199256448Y-53250000D01*
X199191746Y-52924719D01*
X199007489Y-52648959D01*
X198731729Y-52464702D01*
X198406448Y-52400000D01*
X197353552Y-52400000D01*
X197028271Y-52464702D01*
X196752511Y-52648959D01*
X196568254Y-52924719D01*
X196503552Y-53250000D01*
X192221550Y-53250000D01*
X192156848Y-52924719D01*
X191972591Y-52648959D01*
X191696831Y-52464702D01*
X191371550Y-52400000D01*
X190828450Y-52400000D01*
X190503169Y-52464702D01*
X190227409Y-52648959D01*
X190043152Y-52924719D01*
X189978450Y-53250000D01*
X186825000Y-53250000D01*
X186825000Y-51500510D01*
X214495613Y-51500510D01*
X214495613Y-53499490D01*
X214515016Y-53597035D01*
X214570271Y-53679729D01*
X214652965Y-53734984D01*
X214750510Y-53754387D01*
X216749490Y-53754387D01*
X216847035Y-53734984D01*
X216929729Y-53679729D01*
X216984984Y-53597035D01*
X217004387Y-53499490D01*
X217004387Y-51500510D01*
X216984984Y-51402965D01*
X216929729Y-51320271D01*
X216847035Y-51265016D01*
X216749490Y-51245613D01*
X214750510Y-51245613D01*
X214652965Y-51265016D01*
X214570271Y-51320271D01*
X214515016Y-51402965D01*
X214495613Y-51500510D01*
X186825000Y-51500510D01*
X186825000Y-46148530D01*
X197679870Y-46148530D01*
X197793811Y-46424286D01*
X198004605Y-46635448D01*
X198280161Y-46749869D01*
X198281470Y-46749870D01*
X198005714Y-46863811D01*
X197794552Y-47074605D01*
X197680131Y-47350161D01*
X197679870Y-47648530D01*
X197793811Y-47924286D01*
X198004605Y-48135448D01*
X198280161Y-48249869D01*
X198281470Y-48249870D01*
X198005714Y-48363811D01*
X197794552Y-48574605D01*
X197680131Y-48850161D01*
X197679870Y-49148530D01*
X197793811Y-49424286D01*
X198004605Y-49635448D01*
X198280161Y-49749869D01*
X198281470Y-49749870D01*
X198005714Y-49863811D01*
X197794552Y-50074605D01*
X197680131Y-50350161D01*
X197679870Y-50648530D01*
X197793811Y-50924286D01*
X198004605Y-51135448D01*
X198280161Y-51249869D01*
X198578530Y-51250130D01*
X198854286Y-51136189D01*
X199065448Y-50925395D01*
X199179869Y-50649839D01*
X199180130Y-50351470D01*
X199066189Y-50075714D01*
X198855395Y-49864552D01*
X198579839Y-49750131D01*
X198578530Y-49750130D01*
X198854286Y-49636189D01*
X199065448Y-49425395D01*
X199179869Y-49149839D01*
X199180130Y-48851470D01*
X199066189Y-48575714D01*
X198855395Y-48364552D01*
X198579839Y-48250131D01*
X198578530Y-48250130D01*
X198854286Y-48136189D01*
X199065448Y-47925395D01*
X199179869Y-47649839D01*
X199180130Y-47351470D01*
X199066189Y-47075714D01*
X198855395Y-46864552D01*
X198579839Y-46750131D01*
X198578530Y-46750130D01*
X198854286Y-46636189D01*
X199065448Y-46425395D01*
X199179869Y-46149839D01*
X199180130Y-45851470D01*
X199066189Y-45575714D01*
X198855395Y-45364552D01*
X198579839Y-45250131D01*
X198281470Y-45249870D01*
X198005714Y-45363811D01*
X197794552Y-45574605D01*
X197680131Y-45850161D01*
X197679870Y-46148530D01*
X186825000Y-46148530D01*
X186825000Y-45188138D01*
X189249835Y-45188138D01*
X189394159Y-45537429D01*
X189661165Y-45804902D01*
X190010204Y-45949835D01*
X190388138Y-45950165D01*
X190737429Y-45805841D01*
X191004902Y-45538835D01*
X191149835Y-45189796D01*
X191150165Y-44811862D01*
X191005841Y-44462571D01*
X190738835Y-44195098D01*
X190389796Y-44050165D01*
X190011862Y-44049835D01*
X189662571Y-44194159D01*
X189395098Y-44461165D01*
X189250165Y-44810204D01*
X189249835Y-45188138D01*
X186825000Y-45188138D01*
X186825000Y-41148530D01*
X196179870Y-41148530D01*
X196293811Y-41424286D01*
X196504605Y-41635448D01*
X196780161Y-41749869D01*
X196781470Y-41749870D01*
X196505714Y-41863811D01*
X196294552Y-42074605D01*
X196180131Y-42350161D01*
X196179870Y-42648530D01*
X196293811Y-42924286D01*
X196504605Y-43135448D01*
X196780161Y-43249869D01*
X197078530Y-43250130D01*
X197354286Y-43136189D01*
X197565448Y-42925395D01*
X197679869Y-42649839D01*
X197680130Y-42351470D01*
X197566189Y-42075714D01*
X197355395Y-41864552D01*
X197079839Y-41750131D01*
X197078530Y-41750130D01*
X197324418Y-41648530D01*
X197679870Y-41648530D01*
X197793811Y-41924286D01*
X198004605Y-42135448D01*
X198280161Y-42249869D01*
X198578530Y-42250130D01*
X198824418Y-42148530D01*
X199179870Y-42148530D01*
X199293811Y-42424286D01*
X199504605Y-42635448D01*
X199780161Y-42749869D01*
X199781470Y-42749870D01*
X199505714Y-42863811D01*
X199294552Y-43074605D01*
X199180131Y-43350161D01*
X199179870Y-43648530D01*
X199293811Y-43924286D01*
X199504605Y-44135448D01*
X199780161Y-44249869D01*
X199781470Y-44249870D01*
X199505714Y-44363811D01*
X199294552Y-44574605D01*
X199180131Y-44850161D01*
X199179870Y-45148530D01*
X199293811Y-45424286D01*
X199504605Y-45635448D01*
X199780161Y-45749869D01*
X199781470Y-45749870D01*
X199505714Y-45863811D01*
X199294552Y-46074605D01*
X199180131Y-46350161D01*
X199179870Y-46648530D01*
X199293811Y-46924286D01*
X199504605Y-47135448D01*
X199780161Y-47249869D01*
X199781470Y-47249870D01*
X199505714Y-47363811D01*
X199294552Y-47574605D01*
X199180131Y-47850161D01*
X199179870Y-48148530D01*
X199293811Y-48424286D01*
X199504605Y-48635448D01*
X199780161Y-48749869D01*
X199781470Y-48749870D01*
X199505714Y-48863811D01*
X199294552Y-49074605D01*
X199180131Y-49350161D01*
X199179870Y-49648530D01*
X199293811Y-49924286D01*
X199504605Y-50135448D01*
X199780161Y-50249869D01*
X200078530Y-50250130D01*
X200354286Y-50136189D01*
X200565448Y-49925395D01*
X200679869Y-49649839D01*
X200680130Y-49351470D01*
X200566189Y-49075714D01*
X200355395Y-48864552D01*
X200079839Y-48750131D01*
X200078530Y-48750130D01*
X200354286Y-48636189D01*
X200565448Y-48425395D01*
X200679869Y-48149839D01*
X200680130Y-47851470D01*
X200566189Y-47575714D01*
X200355395Y-47364552D01*
X200079839Y-47250131D01*
X200078530Y-47250130D01*
X200354286Y-47136189D01*
X200565448Y-46925395D01*
X200679869Y-46649839D01*
X200680123Y-46358750D01*
X214351190Y-46358750D01*
X214351190Y-47733750D01*
X216500000Y-47733750D01*
X216500000Y-46358750D01*
X214351190Y-46358750D01*
X200680123Y-46358750D01*
X200680130Y-46351470D01*
X200566189Y-46075714D01*
X200355395Y-45864552D01*
X200079839Y-45750131D01*
X200078530Y-45750130D01*
X200354286Y-45636189D01*
X200565448Y-45425395D01*
X200679869Y-45149839D01*
X200680130Y-44851470D01*
X200566189Y-44575714D01*
X200355395Y-44364552D01*
X200079839Y-44250131D01*
X200078530Y-44250130D01*
X200354286Y-44136189D01*
X200565448Y-43925395D01*
X200593121Y-43858750D01*
X210898810Y-43858750D01*
X210898810Y-45233750D01*
X216500000Y-45233750D01*
X216500000Y-44540000D01*
X216918450Y-44540000D01*
X217002183Y-44960952D01*
X217240633Y-45317817D01*
X217597498Y-45556267D01*
X218018450Y-45640000D01*
X218061550Y-45640000D01*
X218482502Y-45556267D01*
X218839367Y-45317817D01*
X219077817Y-44960952D01*
X219161550Y-44540000D01*
X219077817Y-44119048D01*
X218839367Y-43762183D01*
X218482502Y-43523733D01*
X218061550Y-43440000D01*
X218018450Y-43440000D01*
X217597498Y-43523733D01*
X217240633Y-43762183D01*
X217002183Y-44119048D01*
X216918450Y-44540000D01*
X216500000Y-44540000D01*
X216500000Y-43858750D01*
X210898810Y-43858750D01*
X200593121Y-43858750D01*
X200679869Y-43649839D01*
X200680130Y-43351470D01*
X200566189Y-43075714D01*
X200355395Y-42864552D01*
X200079839Y-42750131D01*
X200078530Y-42750130D01*
X200354286Y-42636189D01*
X200565448Y-42425395D01*
X200679869Y-42149839D01*
X200680130Y-41851470D01*
X200566189Y-41575714D01*
X200355395Y-41364552D01*
X200341423Y-41358750D01*
X210232143Y-41358750D01*
X210232143Y-42733750D01*
X216500000Y-42733750D01*
X216500000Y-41358750D01*
X210232143Y-41358750D01*
X200341423Y-41358750D01*
X200079839Y-41250131D01*
X199781470Y-41249870D01*
X199505714Y-41363811D01*
X199294552Y-41574605D01*
X199180131Y-41850161D01*
X199179870Y-42148530D01*
X198824418Y-42148530D01*
X198854286Y-42136189D01*
X199065448Y-41925395D01*
X199179869Y-41649839D01*
X199180130Y-41351470D01*
X199096884Y-41150000D01*
X216935103Y-41150000D01*
X216935103Y-42850000D01*
X216954506Y-42947545D01*
X217009761Y-43030239D01*
X217092455Y-43085494D01*
X217190000Y-43104897D01*
X218890000Y-43104897D01*
X218987545Y-43085494D01*
X219070239Y-43030239D01*
X219125494Y-42947545D01*
X219144897Y-42850000D01*
X219144897Y-41150000D01*
X219125494Y-41052455D01*
X219070239Y-40969761D01*
X218987545Y-40914506D01*
X218890000Y-40895103D01*
X217190000Y-40895103D01*
X217092455Y-40914506D01*
X217009761Y-40969761D01*
X216954506Y-41052455D01*
X216935103Y-41150000D01*
X199096884Y-41150000D01*
X199066189Y-41075714D01*
X198855395Y-40864552D01*
X198579839Y-40750131D01*
X198281470Y-40749870D01*
X198005714Y-40863811D01*
X197794552Y-41074605D01*
X197680131Y-41350161D01*
X197679870Y-41648530D01*
X197324418Y-41648530D01*
X197354286Y-41636189D01*
X197565448Y-41425395D01*
X197679869Y-41149839D01*
X197680130Y-40851470D01*
X197566189Y-40575714D01*
X197355395Y-40364552D01*
X197079839Y-40250131D01*
X196781470Y-40249870D01*
X196505714Y-40363811D01*
X196294552Y-40574605D01*
X196180131Y-40850161D01*
X196179870Y-41148530D01*
X186825000Y-41148530D01*
X186825000Y-36750000D01*
X189978450Y-36750000D01*
X190043152Y-37075281D01*
X190227409Y-37351041D01*
X190503169Y-37535298D01*
X190828450Y-37600000D01*
X191371550Y-37600000D01*
X191696831Y-37535298D01*
X191972591Y-37351041D01*
X192156848Y-37075281D01*
X192221550Y-36750000D01*
X196503552Y-36750000D01*
X196568254Y-37075281D01*
X196752511Y-37351041D01*
X197028271Y-37535298D01*
X197353552Y-37600000D01*
X198406448Y-37600000D01*
X198731729Y-37535298D01*
X199007489Y-37351041D01*
X199191746Y-37075281D01*
X199256448Y-36750000D01*
X214476031Y-36750000D01*
X214571143Y-37228159D01*
X214841998Y-37633523D01*
X215247362Y-37904378D01*
X215725521Y-37999490D01*
X215774479Y-37999490D01*
X216252638Y-37904378D01*
X216658002Y-37633523D01*
X216928857Y-37228159D01*
X217023969Y-36750000D01*
X216928857Y-36271841D01*
X216658002Y-35866477D01*
X216252638Y-35595622D01*
X215774479Y-35500510D01*
X215725521Y-35500510D01*
X215247362Y-35595622D01*
X214841998Y-35866477D01*
X214571143Y-36271841D01*
X214476031Y-36750000D01*
X199256448Y-36750000D01*
X199191746Y-36424719D01*
X199007489Y-36148959D01*
X198731729Y-35964702D01*
X198406448Y-35900000D01*
X197353552Y-35900000D01*
X197028271Y-35964702D01*
X196752511Y-36148959D01*
X196568254Y-36424719D01*
X196503552Y-36750000D01*
X192221550Y-36750000D01*
X192156848Y-36424719D01*
X191972591Y-36148959D01*
X191696831Y-35964702D01*
X191371550Y-35900000D01*
X190828450Y-35900000D01*
X190503169Y-35964702D01*
X190227409Y-36148959D01*
X190043152Y-36424719D01*
X189978450Y-36750000D01*
X186825000Y-36750000D01*
X186825000Y-31076250D01*
X214397500Y-31076250D01*
X214397500Y-32451250D01*
X217022500Y-32451250D01*
X217022500Y-31076250D01*
X217175595Y-31076250D01*
X217175595Y-32451250D01*
X219324405Y-32451250D01*
X219324405Y-31076250D01*
X217175595Y-31076250D01*
X217022500Y-31076250D01*
X214397500Y-31076250D01*
X186825000Y-31076250D01*
X186825000Y-29325000D01*
X221675000Y-29325000D01*
X221675000Y-59425000D01*
M02*
