G04 #@! TF.GenerationSoftware,KiCad,Pcbnew,no-vcs-found-be10de8~57~ubuntu16.10.1*
G04 #@! TF.CreationDate,2017-03-16T12:00:26+01:00*
G04 #@! TF.ProjectId,reborn-plutonium-monitor,7265626F726E2D706C75746F6E69756D,rev?*
G04 #@! TF.FileFunction,Copper,L2,Bot,Signal*
G04 #@! TF.FilePolarity,Positive*
%FSLAX46Y46*%
G04 Gerber Fmt 4.6, Leading zero omitted, Abs format (unit mm)*
G04 Created by KiCad (PCBNEW no-vcs-found-be10de8~57~ubuntu16.10.1) date Thu Mar 16 12:00:26 2017*
%MOMM*%
%LPD*%
G01*
G04 APERTURE LIST*
%ADD10C,0.100000*%
%ADD11O,1.700000X1.200000*%
%ADD12O,2.200000X1.200000*%
%ADD13C,1.000000*%
%ADD14R,1.250000X0.300000*%
%ADD15R,1.500000X1.800000*%
%ADD16R,1.700000X2.000000*%
%ADD17R,1.998980X1.998980*%
%ADD18O,1.998980X1.998980*%
%ADD19O,1.700000X1.700000*%
%ADD20R,1.700000X1.700000*%
%ADD21C,0.250000*%
G04 APERTURE END LIST*
D10*
D11*
X191100000Y-36750000D03*
X191100000Y-53250000D03*
D12*
X197880000Y-36750000D03*
X197880000Y-53250000D03*
D13*
X199930000Y-45000000D03*
X199930000Y-43500000D03*
X199930000Y-42000000D03*
X199930000Y-46500000D03*
X199930000Y-48000000D03*
X199930000Y-49500000D03*
X198430000Y-44500000D03*
X198430000Y-43000000D03*
X198430000Y-41500000D03*
X198430000Y-46000000D03*
X198430000Y-47500000D03*
X198430000Y-49000000D03*
X198430000Y-50500000D03*
X196930000Y-44000000D03*
X196930000Y-42500000D03*
X196930000Y-41000000D03*
X196930000Y-45500000D03*
X196930000Y-47000000D03*
X196930000Y-48500000D03*
X196930000Y-50000000D03*
D14*
X211000000Y-52000000D03*
X211000000Y-51500000D03*
X211000000Y-51000000D03*
X211000000Y-50500000D03*
X211000000Y-50000000D03*
X211000000Y-49500000D03*
X211000000Y-49000000D03*
X211000000Y-48500000D03*
X211000000Y-48000000D03*
X211000000Y-47500000D03*
X211000000Y-47000000D03*
X211000000Y-46500000D03*
X211000000Y-46000000D03*
X211000000Y-45500000D03*
X211000000Y-45000000D03*
X211000000Y-44500000D03*
X211000000Y-44000000D03*
X211000000Y-43500000D03*
X211000000Y-43000000D03*
X211000000Y-42500000D03*
X211000000Y-42000000D03*
X211000000Y-41500000D03*
X211000000Y-41000000D03*
X211000000Y-40500000D03*
X211000000Y-40000000D03*
X211000000Y-39500000D03*
X211000000Y-39000000D03*
X211000000Y-38500000D03*
X211000000Y-38000000D03*
X211000000Y-37500000D03*
D15*
X208750000Y-54750000D03*
X208750000Y-34750000D03*
D16*
X193000000Y-39400000D03*
X193000000Y-43400000D03*
D17*
X215750000Y-52500000D03*
D18*
X218290000Y-52500000D03*
X215750000Y-36750000D03*
D17*
X218290000Y-36750000D03*
D19*
X218040000Y-47080000D03*
X218040000Y-44540000D03*
D20*
X218040000Y-42000000D03*
D16*
X193000000Y-50600000D03*
X193000000Y-46600000D03*
D21*
X198430000Y-39880000D02*
X197950000Y-39400000D01*
X197950000Y-39400000D02*
X193000000Y-39400000D01*
X198430000Y-41500000D02*
X198430000Y-39880000D01*
X193000000Y-43400000D02*
X193000000Y-46600000D01*
X215750000Y-49500000D02*
X212250000Y-46000000D01*
X212250000Y-46000000D02*
X211000000Y-46000000D01*
X215750000Y-52500000D02*
X215750000Y-49500000D01*
D10*
X212000000Y-47000000D02*
X212750000Y-47750000D01*
X211000000Y-47000000D02*
X212000000Y-47000000D01*
X212750000Y-47750000D02*
X212750000Y-48000000D01*
X213000000Y-44500000D02*
X213500000Y-45000000D01*
X211000000Y-44500000D02*
X213000000Y-44500000D01*
D21*
X211000000Y-48500000D02*
X212750000Y-48500000D01*
X211000000Y-50000000D02*
X212500000Y-50000000D01*
X211000000Y-51500000D02*
X212250000Y-51500000D01*
X211000000Y-38000000D02*
X214500000Y-38000000D01*
X214500000Y-38000000D02*
X215750000Y-36750000D01*
X216000000Y-42000000D02*
X215000000Y-41000000D01*
X215000000Y-41000000D02*
X211000000Y-41000000D01*
X218040000Y-42000000D02*
X216000000Y-42000000D01*
X217290000Y-44540000D02*
X214250000Y-41500000D01*
X214250000Y-41500000D02*
X211000000Y-41500000D01*
X218040000Y-44540000D02*
X217290000Y-44540000D01*
X194450000Y-41750000D02*
X194450000Y-49150000D01*
X194450000Y-49150000D02*
X193000000Y-50600000D01*
X195200000Y-41000000D02*
X194450000Y-41750000D01*
X196930000Y-41000000D02*
X195200000Y-41000000D01*
X207800000Y-44000000D02*
X205800000Y-42000000D01*
X205800000Y-42000000D02*
X199930000Y-42000000D01*
X211000000Y-44000000D02*
X207800000Y-44000000D01*
X199200000Y-47250000D02*
X200650000Y-47250000D01*
X200650000Y-47250000D02*
X200900000Y-47000000D01*
X198950000Y-47500000D02*
X199200000Y-47250000D01*
X198430000Y-47500000D02*
X198950000Y-47500000D01*
X200900000Y-47000000D02*
X200950000Y-47000000D01*
X202146448Y-47000000D02*
X200900000Y-47000000D01*
X206146447Y-50999999D02*
X202146448Y-47000000D01*
X211000000Y-51000000D02*
X210999999Y-50999999D01*
X210999999Y-50999999D02*
X206146447Y-50999999D01*
X200900000Y-46500000D02*
X202353552Y-46500000D01*
X204739201Y-47631175D02*
X204806379Y-47631174D01*
X202353552Y-46500000D02*
X203853552Y-48000000D01*
X203853552Y-48000000D02*
X203906073Y-48041884D01*
X204871874Y-47646124D02*
X204932400Y-47675272D01*
X204616096Y-48602805D02*
X204616097Y-48669985D01*
X203906073Y-48041884D02*
X203966600Y-48071032D01*
X204616097Y-48669985D02*
X204631045Y-48735478D01*
X203966600Y-48071032D02*
X204032093Y-48085980D01*
X204225293Y-48041885D02*
X204277816Y-48000000D01*
X204932400Y-47675272D02*
X204984921Y-47717156D01*
X204032093Y-48085980D02*
X204099273Y-48085981D01*
X204099273Y-48085981D02*
X204164766Y-48071031D01*
X206353553Y-50500001D02*
X210999999Y-50500001D01*
X204806379Y-47631174D02*
X204871874Y-47646124D01*
X204164766Y-48071031D02*
X204225293Y-48041885D01*
X204277816Y-48000000D02*
X204560657Y-47717156D01*
X204560657Y-47717156D02*
X204613180Y-47675271D01*
X204613180Y-47675271D02*
X204673706Y-47646123D01*
X205026806Y-48088897D02*
X204984921Y-48141420D01*
X210999999Y-50500001D02*
X211000000Y-50500000D01*
X204673706Y-47646123D02*
X204739201Y-47631175D01*
X204984921Y-48141420D02*
X204702079Y-48424263D01*
X205070903Y-47895699D02*
X205070902Y-47962877D01*
X204984921Y-47717156D02*
X205026807Y-47769679D01*
X205026807Y-47769679D02*
X205055953Y-47830204D01*
X205055953Y-47830204D02*
X205070903Y-47895699D01*
X204660194Y-48476786D02*
X204631046Y-48537312D01*
X205070902Y-47962877D02*
X205055954Y-48028372D01*
X205055954Y-48028372D02*
X205026806Y-48088897D01*
X204702079Y-48424263D02*
X204660194Y-48476786D01*
X204631046Y-48537312D02*
X204616096Y-48602805D01*
X204631045Y-48735478D02*
X204660193Y-48796004D01*
X204660193Y-48796004D02*
X204702080Y-48848528D01*
X204702080Y-48848528D02*
X206353553Y-50500001D01*
X200900000Y-46500000D02*
X199930000Y-46500000D01*
X200900000Y-46500000D02*
X200950000Y-46500000D01*
X198430000Y-46000000D02*
X199150000Y-46000000D01*
X199150000Y-46000000D02*
X199400000Y-45750000D01*
X199400000Y-45750000D02*
X200600000Y-45750000D01*
X200850000Y-45500000D02*
X204546448Y-45500000D01*
X200600000Y-45750000D02*
X200850000Y-45500000D01*
X210999999Y-49499999D02*
X211000000Y-49500000D01*
X204546448Y-45500000D02*
X208546447Y-49499999D01*
X208546447Y-49499999D02*
X210999999Y-49499999D01*
X211000000Y-49000000D02*
X210999999Y-49000001D01*
X202879709Y-44169834D02*
X202857521Y-44233243D01*
X203515450Y-44887046D02*
X203479709Y-44830165D01*
X210999999Y-49000001D02*
X208753553Y-49000001D01*
X208753553Y-49000001D02*
X204753552Y-45000000D01*
X202820290Y-44830165D02*
X202784549Y-44887046D01*
X204753552Y-45000000D02*
X203750000Y-45000000D01*
X202784549Y-44887046D02*
X202737046Y-44934549D01*
X203750000Y-45000000D02*
X203683243Y-44992478D01*
X203442478Y-44233243D02*
X203420290Y-44169834D01*
X202842478Y-44766756D02*
X202820290Y-44830165D01*
X203384549Y-44112953D02*
X203337046Y-44065450D01*
X203683243Y-44992478D02*
X203619834Y-44970290D01*
X202737046Y-44934549D02*
X202680165Y-44970290D01*
X203280165Y-44029709D02*
X203216756Y-44007521D01*
X203619834Y-44970290D02*
X203562953Y-44934549D01*
X203457521Y-44766756D02*
X203450000Y-44700000D01*
X203562953Y-44934549D02*
X203515450Y-44887046D01*
X203479709Y-44830165D02*
X203457521Y-44766756D01*
X203420290Y-44169834D02*
X203384549Y-44112953D01*
X203150000Y-44000000D02*
X203083243Y-44007521D01*
X203450000Y-44700000D02*
X203450000Y-44300000D01*
X203337046Y-44065450D02*
X203280165Y-44029709D01*
X203450000Y-44300000D02*
X203442478Y-44233243D01*
X203083243Y-44007521D02*
X203019834Y-44029709D01*
X203216756Y-44007521D02*
X203150000Y-44000000D01*
X203019834Y-44029709D02*
X202962953Y-44065450D01*
X202962953Y-44065450D02*
X202915450Y-44112953D01*
X202915450Y-44112953D02*
X202879709Y-44169834D01*
X202857521Y-44233243D02*
X202850000Y-44300000D01*
X202850000Y-44300000D02*
X202850000Y-44700000D01*
X202850000Y-44700000D02*
X202842478Y-44766756D01*
X202680165Y-44970290D02*
X202616756Y-44992478D01*
X202616756Y-44992478D02*
X202550000Y-45000000D01*
X202550000Y-45000000D02*
X200785150Y-45000000D01*
X200785150Y-45000000D02*
X199930000Y-45000000D01*
X207623975Y-46467710D02*
X207638924Y-46402215D01*
X211000000Y-48000000D02*
X210999999Y-47999999D01*
X210999999Y-47999999D02*
X209396447Y-47999999D01*
X205855884Y-44459436D02*
X204896448Y-43500000D01*
X207594827Y-46528236D02*
X207623975Y-46467710D01*
X208254479Y-47736020D02*
X208254478Y-47668840D01*
X205973417Y-45454958D02*
X205907922Y-45440009D01*
X207638924Y-46402215D02*
X207638924Y-46335037D01*
X206643403Y-45793240D02*
X206704412Y-45732228D01*
X205855883Y-44883699D02*
X205897769Y-44831178D01*
X208340460Y-47914562D02*
X208298575Y-47862040D01*
X209004278Y-47767570D02*
X208938785Y-47782520D01*
X209396447Y-47999999D02*
X209250000Y-47853552D01*
X205897769Y-44511958D02*
X205855884Y-44459436D01*
X207737653Y-47152016D02*
X207670475Y-47152016D01*
X208487453Y-47250744D02*
X208487453Y-47183566D01*
X206790395Y-45486508D02*
X206775446Y-45421013D01*
X207491931Y-47066033D02*
X207450046Y-47013511D01*
X207604980Y-47137067D02*
X207544454Y-47107919D01*
X209250000Y-47853552D02*
X209197478Y-47811667D01*
X206601516Y-45845762D02*
X206643403Y-45793240D01*
X208878258Y-47811666D02*
X208825736Y-47853553D01*
X208472504Y-47118071D02*
X208443356Y-47057545D01*
X206821946Y-46303487D02*
X206756451Y-46288538D01*
X209197478Y-47811667D02*
X209136951Y-47782519D01*
X206591364Y-45236932D02*
X206525871Y-45221984D01*
X209136951Y-47782519D02*
X209071458Y-47767571D01*
X205794874Y-44944711D02*
X205855883Y-44883699D01*
X205941866Y-44637979D02*
X205926917Y-44572484D01*
X207450045Y-46694291D02*
X207491932Y-46641769D01*
X207307220Y-46070512D02*
X207241727Y-46085462D01*
X206775446Y-45421013D02*
X206746298Y-45360487D01*
X208443356Y-47376765D02*
X208472504Y-47316239D01*
X206746298Y-45360487D02*
X206704413Y-45307965D01*
X208519004Y-48000545D02*
X208453509Y-47985596D01*
X205907922Y-45440009D02*
X205847396Y-45410861D01*
X208029729Y-46963137D02*
X207977207Y-47005024D01*
X209071458Y-47767571D02*
X209004278Y-47767570D01*
X208651677Y-47985596D02*
X208586182Y-48000545D01*
X205926917Y-44770652D02*
X205941866Y-44705157D01*
X208938785Y-47782520D02*
X208878258Y-47811666D01*
X206651891Y-45266080D02*
X206591364Y-45236932D01*
X208348949Y-46963138D02*
X208288422Y-46933990D01*
X208298575Y-47862040D02*
X208269427Y-47801513D01*
X206756451Y-46288538D02*
X206695925Y-46259390D01*
X206458691Y-45221983D02*
X206393198Y-45236933D01*
X208472504Y-47316239D02*
X208487453Y-47250744D01*
X208586182Y-48000545D02*
X208519004Y-48000545D01*
X208825736Y-47853553D02*
X208764724Y-47914562D01*
X205708891Y-45123253D02*
X205723841Y-45057760D01*
X208764724Y-47914562D02*
X208712203Y-47956448D01*
X206219137Y-45368975D02*
X206166616Y-45410861D01*
X207803148Y-47137067D02*
X207737653Y-47152016D01*
X208712203Y-47956448D02*
X208651677Y-47985596D01*
X207420898Y-46952984D02*
X207405950Y-46887491D01*
X208453509Y-47985596D02*
X208392983Y-47956448D01*
X207552941Y-46580757D02*
X207594827Y-46528236D01*
X208392983Y-47956448D02*
X208340460Y-47914562D01*
X208269427Y-47801513D02*
X208254479Y-47736020D01*
X208288422Y-46933990D02*
X208222929Y-46919042D01*
X208254478Y-47668840D02*
X208269428Y-47603347D01*
X207977207Y-47005024D02*
X207916195Y-47066033D01*
X206704413Y-45307965D02*
X206651891Y-45266080D01*
X208269428Y-47603347D02*
X208298574Y-47542820D01*
X208298574Y-47542820D02*
X208340461Y-47490298D01*
X208487453Y-47183566D02*
X208472504Y-47118071D01*
X208340461Y-47490298D02*
X208401470Y-47429286D01*
X207405949Y-46820311D02*
X207420899Y-46754818D01*
X205794873Y-45368975D02*
X205752988Y-45316453D01*
X208401470Y-47429286D02*
X208443356Y-47376765D01*
X208401471Y-47005023D02*
X208348949Y-46963138D01*
X208443356Y-47057545D02*
X208401471Y-47005023D01*
X207405950Y-46887491D02*
X207405949Y-46820311D01*
X208222929Y-46919042D02*
X208155749Y-46919041D01*
X208155749Y-46919041D02*
X208090256Y-46933991D01*
X206572369Y-46104455D02*
X206557421Y-46038962D01*
X208090256Y-46933991D02*
X208029729Y-46963137D01*
X207916195Y-47066033D02*
X207863674Y-47107919D01*
X207863674Y-47107919D02*
X207803148Y-47137067D01*
X206746298Y-45679707D02*
X206775446Y-45619181D01*
X205708892Y-45190433D02*
X205708891Y-45123253D01*
X207552942Y-46156494D02*
X207500420Y-46114609D01*
X207500420Y-46114609D02*
X207439893Y-46085461D01*
X206695925Y-46259390D02*
X206643402Y-46217504D01*
X207670475Y-47152016D02*
X207604980Y-47137067D01*
X207544454Y-47107919D02*
X207491931Y-47066033D01*
X207450046Y-47013511D02*
X207420898Y-46952984D01*
X206775446Y-45619181D02*
X206790395Y-45553686D01*
X207420899Y-46754818D02*
X207450045Y-46694291D01*
X207491932Y-46641769D02*
X207552941Y-46580757D01*
X207638924Y-46335037D02*
X207623975Y-46269542D01*
X207128678Y-46156495D02*
X207067666Y-46217504D01*
X206557421Y-46038962D02*
X206557420Y-45971782D01*
X207623975Y-46269542D02*
X207594827Y-46209016D01*
X207594827Y-46209016D02*
X207552942Y-46156494D01*
X207439893Y-46085461D02*
X207374400Y-46070513D01*
X207374400Y-46070513D02*
X207307220Y-46070512D01*
X207241727Y-46085462D02*
X207181200Y-46114608D01*
X207181200Y-46114608D02*
X207128678Y-46156495D01*
X207067666Y-46217504D02*
X207015145Y-46259390D01*
X205723840Y-45255926D02*
X205708892Y-45190433D01*
X207015145Y-46259390D02*
X206954619Y-46288538D01*
X206572370Y-45906289D02*
X206601516Y-45845762D01*
X205723841Y-45057760D02*
X205752987Y-44997233D01*
X206954619Y-46288538D02*
X206889124Y-46303487D01*
X206889124Y-46303487D02*
X206821946Y-46303487D01*
X206643402Y-46217504D02*
X206601517Y-46164982D01*
X206601517Y-46164982D02*
X206572369Y-46104455D01*
X206557420Y-45971782D02*
X206572370Y-45906289D01*
X206704412Y-45732228D02*
X206746298Y-45679707D01*
X206790395Y-45553686D02*
X206790395Y-45486508D01*
X206525871Y-45221984D02*
X206458691Y-45221983D01*
X206393198Y-45236933D02*
X206332671Y-45266079D01*
X206332671Y-45266079D02*
X206280149Y-45307966D01*
X206280149Y-45307966D02*
X206219137Y-45368975D01*
X206166616Y-45410861D02*
X206106090Y-45440009D01*
X206106090Y-45440009D02*
X206040595Y-45454958D01*
X206040595Y-45454958D02*
X205973417Y-45454958D01*
X205847396Y-45410861D02*
X205794873Y-45368975D01*
X205752988Y-45316453D02*
X205723840Y-45255926D01*
X205752987Y-44997233D02*
X205794874Y-44944711D01*
X205897769Y-44831178D02*
X205926917Y-44770652D01*
X205941866Y-44705157D02*
X205941866Y-44637979D01*
X205926917Y-44572484D02*
X205897769Y-44511958D01*
X204896448Y-43500000D02*
X201250000Y-43500000D01*
X201250000Y-43500000D02*
X199930000Y-43500000D01*
X211000000Y-47500000D02*
X210999999Y-47500001D01*
X200600000Y-42750000D02*
X199450000Y-42750000D01*
X210999999Y-47500001D02*
X209603553Y-47500001D01*
X209603553Y-47500001D02*
X205103552Y-43000000D01*
X205103552Y-43000000D02*
X200850000Y-43000000D01*
X200850000Y-43000000D02*
X200600000Y-42750000D01*
X199450000Y-42750000D02*
X198950000Y-42250000D01*
X198950000Y-42250000D02*
X197180000Y-42250000D01*
X197180000Y-42250000D02*
X196930000Y-42500000D01*
D10*
G36*
X221375000Y-59125000D02*
X187125000Y-59125000D01*
X187125000Y-53250000D01*
X189672572Y-53250000D01*
X189760111Y-53690086D01*
X190009399Y-54063173D01*
X190382486Y-54312461D01*
X190822572Y-54400000D01*
X191377428Y-54400000D01*
X191817514Y-54312461D01*
X192190601Y-54063173D01*
X192439889Y-53690086D01*
X192527428Y-53250000D01*
X196197675Y-53250000D01*
X196285214Y-53690086D01*
X196534502Y-54063173D01*
X196907589Y-54312461D01*
X197347675Y-54400000D01*
X198412325Y-54400000D01*
X198852411Y-54312461D01*
X199225498Y-54063173D01*
X199367935Y-53850000D01*
X207439225Y-53850000D01*
X207439225Y-55650000D01*
X207481911Y-55864599D01*
X207603472Y-56046528D01*
X207785401Y-56168089D01*
X208000000Y-56210775D01*
X209500000Y-56210775D01*
X209714599Y-56168089D01*
X209896528Y-56046528D01*
X210018089Y-55864599D01*
X210060775Y-55650000D01*
X210060775Y-53850000D01*
X210018089Y-53635401D01*
X209896528Y-53453472D01*
X209714599Y-53331911D01*
X209500000Y-53289225D01*
X208000000Y-53289225D01*
X207785401Y-53331911D01*
X207603472Y-53453472D01*
X207481911Y-53635401D01*
X207439225Y-53850000D01*
X199367935Y-53850000D01*
X199474786Y-53690086D01*
X199562325Y-53250000D01*
X199474786Y-52809914D01*
X199225498Y-52436827D01*
X198852411Y-52187539D01*
X198412325Y-52100000D01*
X197347675Y-52100000D01*
X196907589Y-52187539D01*
X196534502Y-52436827D01*
X196285214Y-52809914D01*
X196197675Y-53250000D01*
X192527428Y-53250000D01*
X192439889Y-52809914D01*
X192190601Y-52436827D01*
X191817514Y-52187539D01*
X191377428Y-52100000D01*
X190822572Y-52100000D01*
X190382486Y-52187539D01*
X190009399Y-52436827D01*
X189760111Y-52809914D01*
X189672572Y-53250000D01*
X187125000Y-53250000D01*
X187125000Y-45247550D01*
X188949783Y-45247550D01*
X189139684Y-45707143D01*
X189491007Y-46059081D01*
X189950269Y-46249783D01*
X190447550Y-46250217D01*
X190907143Y-46060316D01*
X191259081Y-45708993D01*
X191449783Y-45249731D01*
X191450217Y-44752450D01*
X191260316Y-44292857D01*
X190908993Y-43940919D01*
X190449731Y-43750217D01*
X189952450Y-43749783D01*
X189492857Y-43939684D01*
X189140919Y-44291007D01*
X188950217Y-44750269D01*
X188949783Y-45247550D01*
X187125000Y-45247550D01*
X187125000Y-38400000D01*
X191589225Y-38400000D01*
X191589225Y-40400000D01*
X191631911Y-40614599D01*
X191753472Y-40796528D01*
X191935401Y-40918089D01*
X192150000Y-40960775D01*
X193850000Y-40960775D01*
X194064599Y-40918089D01*
X194246528Y-40796528D01*
X194368089Y-40614599D01*
X194410775Y-40400000D01*
X194410775Y-40075000D01*
X196419095Y-40075000D01*
X196336000Y-40109334D01*
X196119957Y-40325000D01*
X195200000Y-40325000D01*
X194941688Y-40376381D01*
X194722703Y-40522703D01*
X193972703Y-41272703D01*
X193826381Y-41491688D01*
X193800139Y-41623619D01*
X193775000Y-41750000D01*
X193775000Y-41839225D01*
X192150000Y-41839225D01*
X191935401Y-41881911D01*
X191753472Y-42003472D01*
X191631911Y-42185401D01*
X191589225Y-42400000D01*
X191589225Y-44400000D01*
X191631911Y-44614599D01*
X191753472Y-44796528D01*
X191935401Y-44918089D01*
X192150000Y-44960775D01*
X192325000Y-44960775D01*
X192325000Y-45039225D01*
X192150000Y-45039225D01*
X191935401Y-45081911D01*
X191753472Y-45203472D01*
X191631911Y-45385401D01*
X191589225Y-45600000D01*
X191589225Y-47600000D01*
X191631911Y-47814599D01*
X191753472Y-47996528D01*
X191935401Y-48118089D01*
X192150000Y-48160775D01*
X193775000Y-48160775D01*
X193775000Y-48870406D01*
X193606181Y-49039225D01*
X192150000Y-49039225D01*
X191935401Y-49081911D01*
X191753472Y-49203472D01*
X191631911Y-49385401D01*
X191589225Y-49600000D01*
X191589225Y-51600000D01*
X191631911Y-51814599D01*
X191753472Y-51996528D01*
X191935401Y-52118089D01*
X192150000Y-52160775D01*
X193850000Y-52160775D01*
X194064599Y-52118089D01*
X194246528Y-51996528D01*
X194368089Y-51814599D01*
X194410775Y-51600000D01*
X194410775Y-50143819D01*
X194927297Y-49627297D01*
X195073619Y-49408312D01*
X195125000Y-49150000D01*
X195125000Y-42029594D01*
X195479594Y-41675000D01*
X196120193Y-41675000D01*
X196195075Y-41750013D01*
X196040372Y-41904446D01*
X195880182Y-42290226D01*
X195879818Y-42707942D01*
X196039334Y-43094000D01*
X196334446Y-43389628D01*
X196720226Y-43549818D01*
X197137942Y-43550182D01*
X197524000Y-43390666D01*
X197819628Y-43095554D01*
X197890448Y-42925000D01*
X198670406Y-42925000D01*
X198925792Y-43180386D01*
X198880182Y-43290226D01*
X198879818Y-43707942D01*
X199039334Y-44094000D01*
X199195075Y-44250013D01*
X199040372Y-44404446D01*
X198880182Y-44790226D01*
X198879956Y-45049914D01*
X198639774Y-44950182D01*
X198222058Y-44949818D01*
X197836000Y-45109334D01*
X197540372Y-45404446D01*
X197380182Y-45790226D01*
X197379818Y-46207942D01*
X197539334Y-46594000D01*
X197695075Y-46750013D01*
X197540372Y-46904446D01*
X197380182Y-47290226D01*
X197379818Y-47707942D01*
X197539334Y-48094000D01*
X197695075Y-48250013D01*
X197540372Y-48404446D01*
X197380182Y-48790226D01*
X197379818Y-49207942D01*
X197539334Y-49594000D01*
X197695075Y-49750013D01*
X197540372Y-49904446D01*
X197380182Y-50290226D01*
X197379818Y-50707942D01*
X197539334Y-51094000D01*
X197834446Y-51389628D01*
X198220226Y-51549818D01*
X198637942Y-51550182D01*
X199024000Y-51390666D01*
X199319628Y-51095554D01*
X199479818Y-50709774D01*
X199480044Y-50450086D01*
X199720226Y-50549818D01*
X200137942Y-50550182D01*
X200524000Y-50390666D01*
X200819628Y-50095554D01*
X200979818Y-49709774D01*
X200980182Y-49292058D01*
X200820666Y-48906000D01*
X200664925Y-48749987D01*
X200819628Y-48595554D01*
X200979818Y-48209774D01*
X200980153Y-47825616D01*
X201127297Y-47727297D01*
X201179594Y-47675000D01*
X201866854Y-47675000D01*
X205669150Y-51477296D01*
X205888135Y-51623618D01*
X206146447Y-51674999D01*
X209849035Y-51674999D01*
X209814225Y-51850000D01*
X209814225Y-52150000D01*
X209856911Y-52364599D01*
X209978472Y-52546528D01*
X210160401Y-52668089D01*
X210375000Y-52710775D01*
X211625000Y-52710775D01*
X211839599Y-52668089D01*
X212021528Y-52546528D01*
X212143089Y-52364599D01*
X212185775Y-52150000D01*
X212185775Y-51850000D01*
X212143089Y-51635401D01*
X212052617Y-51500000D01*
X212143089Y-51364599D01*
X212185775Y-51150000D01*
X212185775Y-50850000D01*
X212165884Y-50750000D01*
X212185775Y-50650000D01*
X212185775Y-50350000D01*
X212143089Y-50135401D01*
X212052617Y-50000000D01*
X212143089Y-49864599D01*
X212185775Y-49650000D01*
X212185775Y-49350000D01*
X212165884Y-49250000D01*
X212185775Y-49150000D01*
X212185775Y-48850000D01*
X212143089Y-48635401D01*
X212052617Y-48500000D01*
X212143089Y-48364599D01*
X212185775Y-48150000D01*
X212185775Y-47850000D01*
X212165884Y-47750000D01*
X212185775Y-47650000D01*
X212185775Y-47350000D01*
X212143089Y-47135401D01*
X212052617Y-47000000D01*
X212143089Y-46864599D01*
X212145896Y-46850490D01*
X215075000Y-49779594D01*
X215075000Y-50939735D01*
X214750510Y-50939735D01*
X214535911Y-50982421D01*
X214353982Y-51103982D01*
X214232421Y-51285911D01*
X214189735Y-51500510D01*
X214189735Y-53499490D01*
X214232421Y-53714089D01*
X214353982Y-53896018D01*
X214535911Y-54017579D01*
X214750510Y-54060265D01*
X216749490Y-54060265D01*
X216964089Y-54017579D01*
X217146018Y-53896018D01*
X217267579Y-53714089D01*
X217310265Y-53499490D01*
X217310265Y-51500510D01*
X217267579Y-51285911D01*
X217146018Y-51103982D01*
X216964089Y-50982421D01*
X216749490Y-50939735D01*
X216425000Y-50939735D01*
X216425000Y-49500000D01*
X216373619Y-49241689D01*
X216227297Y-49022703D01*
X212727297Y-45522703D01*
X212508312Y-45376381D01*
X212250000Y-45325000D01*
X212180802Y-45325000D01*
X212143089Y-45135401D01*
X212021528Y-44953472D01*
X211839599Y-44831911D01*
X211625000Y-44789225D01*
X210375000Y-44789225D01*
X210160401Y-44831911D01*
X209978472Y-44953472D01*
X209856911Y-45135401D01*
X209814225Y-45350000D01*
X209814225Y-45650000D01*
X209834116Y-45750000D01*
X209814225Y-45850000D01*
X209814225Y-46150000D01*
X209834116Y-46250000D01*
X209814225Y-46350000D01*
X209814225Y-46650000D01*
X209840564Y-46782418D01*
X207716546Y-44658400D01*
X207800000Y-44675000D01*
X210195145Y-44675000D01*
X210375000Y-44710775D01*
X211625000Y-44710775D01*
X211839599Y-44668089D01*
X212021528Y-44546528D01*
X212143089Y-44364599D01*
X212185775Y-44150000D01*
X212185775Y-43850000D01*
X212143089Y-43635401D01*
X212021528Y-43453472D01*
X211839599Y-43331911D01*
X211625000Y-43289225D01*
X210375000Y-43289225D01*
X210195145Y-43325000D01*
X208079594Y-43325000D01*
X206277297Y-41522703D01*
X206058312Y-41376381D01*
X205800000Y-41325000D01*
X200739807Y-41325000D01*
X200525554Y-41110372D01*
X200139774Y-40950182D01*
X199722058Y-40949818D01*
X199394666Y-41085094D01*
X199320666Y-40906000D01*
X199105000Y-40689957D01*
X199105000Y-39880000D01*
X199053619Y-39621689D01*
X198907297Y-39402703D01*
X198427297Y-38922703D01*
X198208312Y-38776381D01*
X197950000Y-38725000D01*
X194410775Y-38725000D01*
X194410775Y-38400000D01*
X194368089Y-38185401D01*
X194246528Y-38003472D01*
X194064599Y-37881911D01*
X193850000Y-37839225D01*
X192150000Y-37839225D01*
X191935401Y-37881911D01*
X191753472Y-38003472D01*
X191631911Y-38185401D01*
X191589225Y-38400000D01*
X187125000Y-38400000D01*
X187125000Y-36750000D01*
X189672572Y-36750000D01*
X189760111Y-37190086D01*
X190009399Y-37563173D01*
X190382486Y-37812461D01*
X190822572Y-37900000D01*
X191377428Y-37900000D01*
X191817514Y-37812461D01*
X192190601Y-37563173D01*
X192439889Y-37190086D01*
X192527428Y-36750000D01*
X196197675Y-36750000D01*
X196285214Y-37190086D01*
X196534502Y-37563173D01*
X196907589Y-37812461D01*
X197347675Y-37900000D01*
X198412325Y-37900000D01*
X198852411Y-37812461D01*
X199225498Y-37563173D01*
X199367935Y-37350000D01*
X209814225Y-37350000D01*
X209814225Y-37650000D01*
X209834116Y-37750000D01*
X209814225Y-37850000D01*
X209814225Y-38150000D01*
X209834116Y-38250000D01*
X209814225Y-38350000D01*
X209814225Y-38650000D01*
X209834116Y-38750000D01*
X209814225Y-38850000D01*
X209814225Y-39150000D01*
X209834116Y-39250000D01*
X209814225Y-39350000D01*
X209814225Y-39650000D01*
X209834116Y-39750000D01*
X209814225Y-39850000D01*
X209814225Y-40150000D01*
X209834116Y-40250000D01*
X209814225Y-40350000D01*
X209814225Y-40650000D01*
X209834116Y-40750000D01*
X209814225Y-40850000D01*
X209814225Y-41150000D01*
X209834116Y-41250000D01*
X209814225Y-41350000D01*
X209814225Y-41650000D01*
X209856911Y-41864599D01*
X209978472Y-42046528D01*
X210160401Y-42168089D01*
X210375000Y-42210775D01*
X211625000Y-42210775D01*
X211804855Y-42175000D01*
X213970406Y-42175000D01*
X216681393Y-44885987D01*
X216719141Y-45075757D01*
X217022623Y-45529949D01*
X217476815Y-45833431D01*
X218012572Y-45940000D01*
X218067428Y-45940000D01*
X218603185Y-45833431D01*
X219057377Y-45529949D01*
X219360859Y-45075757D01*
X219467428Y-44540000D01*
X219360859Y-44004243D01*
X219057377Y-43550051D01*
X218848936Y-43410775D01*
X218890000Y-43410775D01*
X219104599Y-43368089D01*
X219286528Y-43246528D01*
X219408089Y-43064599D01*
X219450775Y-42850000D01*
X219450775Y-41150000D01*
X219408089Y-40935401D01*
X219286528Y-40753472D01*
X219104599Y-40631911D01*
X218890000Y-40589225D01*
X217190000Y-40589225D01*
X216975401Y-40631911D01*
X216793472Y-40753472D01*
X216671911Y-40935401D01*
X216629225Y-41150000D01*
X216629225Y-41325000D01*
X216279594Y-41325000D01*
X215477297Y-40522703D01*
X215258312Y-40376381D01*
X215000000Y-40325000D01*
X212180802Y-40325000D01*
X212165884Y-40250000D01*
X212185775Y-40150000D01*
X212185775Y-39850000D01*
X212165884Y-39750000D01*
X212185775Y-39650000D01*
X212185775Y-39350000D01*
X212165884Y-39250000D01*
X212185775Y-39150000D01*
X212185775Y-38850000D01*
X212165884Y-38750000D01*
X212180802Y-38675000D01*
X214500000Y-38675000D01*
X214758312Y-38623619D01*
X214977297Y-38477297D01*
X215248767Y-38205827D01*
X215719644Y-38299490D01*
X215780356Y-38299490D01*
X216373320Y-38181542D01*
X216876011Y-37845655D01*
X217211898Y-37342964D01*
X217329846Y-36750000D01*
X217211898Y-36157036D01*
X216876011Y-35654345D01*
X216373320Y-35318458D01*
X215780356Y-35200510D01*
X215719644Y-35200510D01*
X215126680Y-35318458D01*
X214623989Y-35654345D01*
X214288102Y-36157036D01*
X214170154Y-36750000D01*
X214273890Y-37271516D01*
X214220406Y-37325000D01*
X212180802Y-37325000D01*
X212143089Y-37135401D01*
X212021528Y-36953472D01*
X211839599Y-36831911D01*
X211625000Y-36789225D01*
X210375000Y-36789225D01*
X210160401Y-36831911D01*
X209978472Y-36953472D01*
X209856911Y-37135401D01*
X209814225Y-37350000D01*
X199367935Y-37350000D01*
X199474786Y-37190086D01*
X199562325Y-36750000D01*
X199474786Y-36309914D01*
X199225498Y-35936827D01*
X198852411Y-35687539D01*
X198412325Y-35600000D01*
X197347675Y-35600000D01*
X196907589Y-35687539D01*
X196534502Y-35936827D01*
X196285214Y-36309914D01*
X196197675Y-36750000D01*
X192527428Y-36750000D01*
X192439889Y-36309914D01*
X192190601Y-35936827D01*
X191817514Y-35687539D01*
X191377428Y-35600000D01*
X190822572Y-35600000D01*
X190382486Y-35687539D01*
X190009399Y-35936827D01*
X189760111Y-36309914D01*
X189672572Y-36750000D01*
X187125000Y-36750000D01*
X187125000Y-33850000D01*
X207439225Y-33850000D01*
X207439225Y-35650000D01*
X207481911Y-35864599D01*
X207603472Y-36046528D01*
X207785401Y-36168089D01*
X208000000Y-36210775D01*
X209500000Y-36210775D01*
X209714599Y-36168089D01*
X209896528Y-36046528D01*
X210018089Y-35864599D01*
X210060775Y-35650000D01*
X210060775Y-33850000D01*
X210018089Y-33635401D01*
X209896528Y-33453472D01*
X209714599Y-33331911D01*
X209500000Y-33289225D01*
X208000000Y-33289225D01*
X207785401Y-33331911D01*
X207603472Y-33453472D01*
X207481911Y-33635401D01*
X207439225Y-33850000D01*
X187125000Y-33850000D01*
X187125000Y-29625000D01*
X221375000Y-29625000D01*
X221375000Y-59125000D01*
X221375000Y-59125000D01*
G37*
X221375000Y-59125000D02*
X187125000Y-59125000D01*
X187125000Y-53250000D01*
X189672572Y-53250000D01*
X189760111Y-53690086D01*
X190009399Y-54063173D01*
X190382486Y-54312461D01*
X190822572Y-54400000D01*
X191377428Y-54400000D01*
X191817514Y-54312461D01*
X192190601Y-54063173D01*
X192439889Y-53690086D01*
X192527428Y-53250000D01*
X196197675Y-53250000D01*
X196285214Y-53690086D01*
X196534502Y-54063173D01*
X196907589Y-54312461D01*
X197347675Y-54400000D01*
X198412325Y-54400000D01*
X198852411Y-54312461D01*
X199225498Y-54063173D01*
X199367935Y-53850000D01*
X207439225Y-53850000D01*
X207439225Y-55650000D01*
X207481911Y-55864599D01*
X207603472Y-56046528D01*
X207785401Y-56168089D01*
X208000000Y-56210775D01*
X209500000Y-56210775D01*
X209714599Y-56168089D01*
X209896528Y-56046528D01*
X210018089Y-55864599D01*
X210060775Y-55650000D01*
X210060775Y-53850000D01*
X210018089Y-53635401D01*
X209896528Y-53453472D01*
X209714599Y-53331911D01*
X209500000Y-53289225D01*
X208000000Y-53289225D01*
X207785401Y-53331911D01*
X207603472Y-53453472D01*
X207481911Y-53635401D01*
X207439225Y-53850000D01*
X199367935Y-53850000D01*
X199474786Y-53690086D01*
X199562325Y-53250000D01*
X199474786Y-52809914D01*
X199225498Y-52436827D01*
X198852411Y-52187539D01*
X198412325Y-52100000D01*
X197347675Y-52100000D01*
X196907589Y-52187539D01*
X196534502Y-52436827D01*
X196285214Y-52809914D01*
X196197675Y-53250000D01*
X192527428Y-53250000D01*
X192439889Y-52809914D01*
X192190601Y-52436827D01*
X191817514Y-52187539D01*
X191377428Y-52100000D01*
X190822572Y-52100000D01*
X190382486Y-52187539D01*
X190009399Y-52436827D01*
X189760111Y-52809914D01*
X189672572Y-53250000D01*
X187125000Y-53250000D01*
X187125000Y-45247550D01*
X188949783Y-45247550D01*
X189139684Y-45707143D01*
X189491007Y-46059081D01*
X189950269Y-46249783D01*
X190447550Y-46250217D01*
X190907143Y-46060316D01*
X191259081Y-45708993D01*
X191449783Y-45249731D01*
X191450217Y-44752450D01*
X191260316Y-44292857D01*
X190908993Y-43940919D01*
X190449731Y-43750217D01*
X189952450Y-43749783D01*
X189492857Y-43939684D01*
X189140919Y-44291007D01*
X188950217Y-44750269D01*
X188949783Y-45247550D01*
X187125000Y-45247550D01*
X187125000Y-38400000D01*
X191589225Y-38400000D01*
X191589225Y-40400000D01*
X191631911Y-40614599D01*
X191753472Y-40796528D01*
X191935401Y-40918089D01*
X192150000Y-40960775D01*
X193850000Y-40960775D01*
X194064599Y-40918089D01*
X194246528Y-40796528D01*
X194368089Y-40614599D01*
X194410775Y-40400000D01*
X194410775Y-40075000D01*
X196419095Y-40075000D01*
X196336000Y-40109334D01*
X196119957Y-40325000D01*
X195200000Y-40325000D01*
X194941688Y-40376381D01*
X194722703Y-40522703D01*
X193972703Y-41272703D01*
X193826381Y-41491688D01*
X193800139Y-41623619D01*
X193775000Y-41750000D01*
X193775000Y-41839225D01*
X192150000Y-41839225D01*
X191935401Y-41881911D01*
X191753472Y-42003472D01*
X191631911Y-42185401D01*
X191589225Y-42400000D01*
X191589225Y-44400000D01*
X191631911Y-44614599D01*
X191753472Y-44796528D01*
X191935401Y-44918089D01*
X192150000Y-44960775D01*
X192325000Y-44960775D01*
X192325000Y-45039225D01*
X192150000Y-45039225D01*
X191935401Y-45081911D01*
X191753472Y-45203472D01*
X191631911Y-45385401D01*
X191589225Y-45600000D01*
X191589225Y-47600000D01*
X191631911Y-47814599D01*
X191753472Y-47996528D01*
X191935401Y-48118089D01*
X192150000Y-48160775D01*
X193775000Y-48160775D01*
X193775000Y-48870406D01*
X193606181Y-49039225D01*
X192150000Y-49039225D01*
X191935401Y-49081911D01*
X191753472Y-49203472D01*
X191631911Y-49385401D01*
X191589225Y-49600000D01*
X191589225Y-51600000D01*
X191631911Y-51814599D01*
X191753472Y-51996528D01*
X191935401Y-52118089D01*
X192150000Y-52160775D01*
X193850000Y-52160775D01*
X194064599Y-52118089D01*
X194246528Y-51996528D01*
X194368089Y-51814599D01*
X194410775Y-51600000D01*
X194410775Y-50143819D01*
X194927297Y-49627297D01*
X195073619Y-49408312D01*
X195125000Y-49150000D01*
X195125000Y-42029594D01*
X195479594Y-41675000D01*
X196120193Y-41675000D01*
X196195075Y-41750013D01*
X196040372Y-41904446D01*
X195880182Y-42290226D01*
X195879818Y-42707942D01*
X196039334Y-43094000D01*
X196334446Y-43389628D01*
X196720226Y-43549818D01*
X197137942Y-43550182D01*
X197524000Y-43390666D01*
X197819628Y-43095554D01*
X197890448Y-42925000D01*
X198670406Y-42925000D01*
X198925792Y-43180386D01*
X198880182Y-43290226D01*
X198879818Y-43707942D01*
X199039334Y-44094000D01*
X199195075Y-44250013D01*
X199040372Y-44404446D01*
X198880182Y-44790226D01*
X198879956Y-45049914D01*
X198639774Y-44950182D01*
X198222058Y-44949818D01*
X197836000Y-45109334D01*
X197540372Y-45404446D01*
X197380182Y-45790226D01*
X197379818Y-46207942D01*
X197539334Y-46594000D01*
X197695075Y-46750013D01*
X197540372Y-46904446D01*
X197380182Y-47290226D01*
X197379818Y-47707942D01*
X197539334Y-48094000D01*
X197695075Y-48250013D01*
X197540372Y-48404446D01*
X197380182Y-48790226D01*
X197379818Y-49207942D01*
X197539334Y-49594000D01*
X197695075Y-49750013D01*
X197540372Y-49904446D01*
X197380182Y-50290226D01*
X197379818Y-50707942D01*
X197539334Y-51094000D01*
X197834446Y-51389628D01*
X198220226Y-51549818D01*
X198637942Y-51550182D01*
X199024000Y-51390666D01*
X199319628Y-51095554D01*
X199479818Y-50709774D01*
X199480044Y-50450086D01*
X199720226Y-50549818D01*
X200137942Y-50550182D01*
X200524000Y-50390666D01*
X200819628Y-50095554D01*
X200979818Y-49709774D01*
X200980182Y-49292058D01*
X200820666Y-48906000D01*
X200664925Y-48749987D01*
X200819628Y-48595554D01*
X200979818Y-48209774D01*
X200980153Y-47825616D01*
X201127297Y-47727297D01*
X201179594Y-47675000D01*
X201866854Y-47675000D01*
X205669150Y-51477296D01*
X205888135Y-51623618D01*
X206146447Y-51674999D01*
X209849035Y-51674999D01*
X209814225Y-51850000D01*
X209814225Y-52150000D01*
X209856911Y-52364599D01*
X209978472Y-52546528D01*
X210160401Y-52668089D01*
X210375000Y-52710775D01*
X211625000Y-52710775D01*
X211839599Y-52668089D01*
X212021528Y-52546528D01*
X212143089Y-52364599D01*
X212185775Y-52150000D01*
X212185775Y-51850000D01*
X212143089Y-51635401D01*
X212052617Y-51500000D01*
X212143089Y-51364599D01*
X212185775Y-51150000D01*
X212185775Y-50850000D01*
X212165884Y-50750000D01*
X212185775Y-50650000D01*
X212185775Y-50350000D01*
X212143089Y-50135401D01*
X212052617Y-50000000D01*
X212143089Y-49864599D01*
X212185775Y-49650000D01*
X212185775Y-49350000D01*
X212165884Y-49250000D01*
X212185775Y-49150000D01*
X212185775Y-48850000D01*
X212143089Y-48635401D01*
X212052617Y-48500000D01*
X212143089Y-48364599D01*
X212185775Y-48150000D01*
X212185775Y-47850000D01*
X212165884Y-47750000D01*
X212185775Y-47650000D01*
X212185775Y-47350000D01*
X212143089Y-47135401D01*
X212052617Y-47000000D01*
X212143089Y-46864599D01*
X212145896Y-46850490D01*
X215075000Y-49779594D01*
X215075000Y-50939735D01*
X214750510Y-50939735D01*
X214535911Y-50982421D01*
X214353982Y-51103982D01*
X214232421Y-51285911D01*
X214189735Y-51500510D01*
X214189735Y-53499490D01*
X214232421Y-53714089D01*
X214353982Y-53896018D01*
X214535911Y-54017579D01*
X214750510Y-54060265D01*
X216749490Y-54060265D01*
X216964089Y-54017579D01*
X217146018Y-53896018D01*
X217267579Y-53714089D01*
X217310265Y-53499490D01*
X217310265Y-51500510D01*
X217267579Y-51285911D01*
X217146018Y-51103982D01*
X216964089Y-50982421D01*
X216749490Y-50939735D01*
X216425000Y-50939735D01*
X216425000Y-49500000D01*
X216373619Y-49241689D01*
X216227297Y-49022703D01*
X212727297Y-45522703D01*
X212508312Y-45376381D01*
X212250000Y-45325000D01*
X212180802Y-45325000D01*
X212143089Y-45135401D01*
X212021528Y-44953472D01*
X211839599Y-44831911D01*
X211625000Y-44789225D01*
X210375000Y-44789225D01*
X210160401Y-44831911D01*
X209978472Y-44953472D01*
X209856911Y-45135401D01*
X209814225Y-45350000D01*
X209814225Y-45650000D01*
X209834116Y-45750000D01*
X209814225Y-45850000D01*
X209814225Y-46150000D01*
X209834116Y-46250000D01*
X209814225Y-46350000D01*
X209814225Y-46650000D01*
X209840564Y-46782418D01*
X207716546Y-44658400D01*
X207800000Y-44675000D01*
X210195145Y-44675000D01*
X210375000Y-44710775D01*
X211625000Y-44710775D01*
X211839599Y-44668089D01*
X212021528Y-44546528D01*
X212143089Y-44364599D01*
X212185775Y-44150000D01*
X212185775Y-43850000D01*
X212143089Y-43635401D01*
X212021528Y-43453472D01*
X211839599Y-43331911D01*
X211625000Y-43289225D01*
X210375000Y-43289225D01*
X210195145Y-43325000D01*
X208079594Y-43325000D01*
X206277297Y-41522703D01*
X206058312Y-41376381D01*
X205800000Y-41325000D01*
X200739807Y-41325000D01*
X200525554Y-41110372D01*
X200139774Y-40950182D01*
X199722058Y-40949818D01*
X199394666Y-41085094D01*
X199320666Y-40906000D01*
X199105000Y-40689957D01*
X199105000Y-39880000D01*
X199053619Y-39621689D01*
X198907297Y-39402703D01*
X198427297Y-38922703D01*
X198208312Y-38776381D01*
X197950000Y-38725000D01*
X194410775Y-38725000D01*
X194410775Y-38400000D01*
X194368089Y-38185401D01*
X194246528Y-38003472D01*
X194064599Y-37881911D01*
X193850000Y-37839225D01*
X192150000Y-37839225D01*
X191935401Y-37881911D01*
X191753472Y-38003472D01*
X191631911Y-38185401D01*
X191589225Y-38400000D01*
X187125000Y-38400000D01*
X187125000Y-36750000D01*
X189672572Y-36750000D01*
X189760111Y-37190086D01*
X190009399Y-37563173D01*
X190382486Y-37812461D01*
X190822572Y-37900000D01*
X191377428Y-37900000D01*
X191817514Y-37812461D01*
X192190601Y-37563173D01*
X192439889Y-37190086D01*
X192527428Y-36750000D01*
X196197675Y-36750000D01*
X196285214Y-37190086D01*
X196534502Y-37563173D01*
X196907589Y-37812461D01*
X197347675Y-37900000D01*
X198412325Y-37900000D01*
X198852411Y-37812461D01*
X199225498Y-37563173D01*
X199367935Y-37350000D01*
X209814225Y-37350000D01*
X209814225Y-37650000D01*
X209834116Y-37750000D01*
X209814225Y-37850000D01*
X209814225Y-38150000D01*
X209834116Y-38250000D01*
X209814225Y-38350000D01*
X209814225Y-38650000D01*
X209834116Y-38750000D01*
X209814225Y-38850000D01*
X209814225Y-39150000D01*
X209834116Y-39250000D01*
X209814225Y-39350000D01*
X209814225Y-39650000D01*
X209834116Y-39750000D01*
X209814225Y-39850000D01*
X209814225Y-40150000D01*
X209834116Y-40250000D01*
X209814225Y-40350000D01*
X209814225Y-40650000D01*
X209834116Y-40750000D01*
X209814225Y-40850000D01*
X209814225Y-41150000D01*
X209834116Y-41250000D01*
X209814225Y-41350000D01*
X209814225Y-41650000D01*
X209856911Y-41864599D01*
X209978472Y-42046528D01*
X210160401Y-42168089D01*
X210375000Y-42210775D01*
X211625000Y-42210775D01*
X211804855Y-42175000D01*
X213970406Y-42175000D01*
X216681393Y-44885987D01*
X216719141Y-45075757D01*
X217022623Y-45529949D01*
X217476815Y-45833431D01*
X218012572Y-45940000D01*
X218067428Y-45940000D01*
X218603185Y-45833431D01*
X219057377Y-45529949D01*
X219360859Y-45075757D01*
X219467428Y-44540000D01*
X219360859Y-44004243D01*
X219057377Y-43550051D01*
X218848936Y-43410775D01*
X218890000Y-43410775D01*
X219104599Y-43368089D01*
X219286528Y-43246528D01*
X219408089Y-43064599D01*
X219450775Y-42850000D01*
X219450775Y-41150000D01*
X219408089Y-40935401D01*
X219286528Y-40753472D01*
X219104599Y-40631911D01*
X218890000Y-40589225D01*
X217190000Y-40589225D01*
X216975401Y-40631911D01*
X216793472Y-40753472D01*
X216671911Y-40935401D01*
X216629225Y-41150000D01*
X216629225Y-41325000D01*
X216279594Y-41325000D01*
X215477297Y-40522703D01*
X215258312Y-40376381D01*
X215000000Y-40325000D01*
X212180802Y-40325000D01*
X212165884Y-40250000D01*
X212185775Y-40150000D01*
X212185775Y-39850000D01*
X212165884Y-39750000D01*
X212185775Y-39650000D01*
X212185775Y-39350000D01*
X212165884Y-39250000D01*
X212185775Y-39150000D01*
X212185775Y-38850000D01*
X212165884Y-38750000D01*
X212180802Y-38675000D01*
X214500000Y-38675000D01*
X214758312Y-38623619D01*
X214977297Y-38477297D01*
X215248767Y-38205827D01*
X215719644Y-38299490D01*
X215780356Y-38299490D01*
X216373320Y-38181542D01*
X216876011Y-37845655D01*
X217211898Y-37342964D01*
X217329846Y-36750000D01*
X217211898Y-36157036D01*
X216876011Y-35654345D01*
X216373320Y-35318458D01*
X215780356Y-35200510D01*
X215719644Y-35200510D01*
X215126680Y-35318458D01*
X214623989Y-35654345D01*
X214288102Y-36157036D01*
X214170154Y-36750000D01*
X214273890Y-37271516D01*
X214220406Y-37325000D01*
X212180802Y-37325000D01*
X212143089Y-37135401D01*
X212021528Y-36953472D01*
X211839599Y-36831911D01*
X211625000Y-36789225D01*
X210375000Y-36789225D01*
X210160401Y-36831911D01*
X209978472Y-36953472D01*
X209856911Y-37135401D01*
X209814225Y-37350000D01*
X199367935Y-37350000D01*
X199474786Y-37190086D01*
X199562325Y-36750000D01*
X199474786Y-36309914D01*
X199225498Y-35936827D01*
X198852411Y-35687539D01*
X198412325Y-35600000D01*
X197347675Y-35600000D01*
X196907589Y-35687539D01*
X196534502Y-35936827D01*
X196285214Y-36309914D01*
X196197675Y-36750000D01*
X192527428Y-36750000D01*
X192439889Y-36309914D01*
X192190601Y-35936827D01*
X191817514Y-35687539D01*
X191377428Y-35600000D01*
X190822572Y-35600000D01*
X190382486Y-35687539D01*
X190009399Y-35936827D01*
X189760111Y-36309914D01*
X189672572Y-36750000D01*
X187125000Y-36750000D01*
X187125000Y-33850000D01*
X207439225Y-33850000D01*
X207439225Y-35650000D01*
X207481911Y-35864599D01*
X207603472Y-36046528D01*
X207785401Y-36168089D01*
X208000000Y-36210775D01*
X209500000Y-36210775D01*
X209714599Y-36168089D01*
X209896528Y-36046528D01*
X210018089Y-35864599D01*
X210060775Y-35650000D01*
X210060775Y-33850000D01*
X210018089Y-33635401D01*
X209896528Y-33453472D01*
X209714599Y-33331911D01*
X209500000Y-33289225D01*
X208000000Y-33289225D01*
X207785401Y-33331911D01*
X207603472Y-33453472D01*
X207481911Y-33635401D01*
X207439225Y-33850000D01*
X187125000Y-33850000D01*
X187125000Y-29625000D01*
X221375000Y-29625000D01*
X221375000Y-59125000D01*
G36*
X211450000Y-39697062D02*
X210550000Y-39697062D01*
X210550000Y-37802938D01*
X211450000Y-37802938D01*
X211450000Y-39697062D01*
X211450000Y-39697062D01*
G37*
X211450000Y-39697062D02*
X210550000Y-39697062D01*
X210550000Y-37802938D01*
X211450000Y-37802938D01*
X211450000Y-39697062D01*
G36*
X210375000Y-49802938D02*
X211625000Y-49802938D01*
X211639770Y-49800000D01*
X212200000Y-49800000D01*
X212200000Y-50200000D01*
X211639770Y-50200000D01*
X211625000Y-50197062D01*
X210375000Y-50197062D01*
X210360230Y-50200000D01*
X209800000Y-50200000D01*
X209800000Y-49800000D01*
X210360230Y-49800000D01*
X210375000Y-49802938D01*
X210375000Y-49802938D01*
G37*
X210375000Y-49802938D02*
X211625000Y-49802938D01*
X211639770Y-49800000D01*
X212200000Y-49800000D01*
X212200000Y-50200000D01*
X211639770Y-50200000D01*
X211625000Y-50197062D01*
X210375000Y-50197062D01*
X210360230Y-50200000D01*
X209800000Y-50200000D01*
X209800000Y-49800000D01*
X210360230Y-49800000D01*
X210375000Y-49802938D01*
G36*
X210375000Y-41802938D02*
X211625000Y-41802938D01*
X211639770Y-41800000D01*
X212200000Y-41800000D01*
X212200000Y-43700000D01*
X211639770Y-43700000D01*
X211625000Y-43697062D01*
X210375000Y-43697062D01*
X210360230Y-43700000D01*
X209800000Y-43700000D01*
X209800000Y-41800000D01*
X210360230Y-41800000D01*
X210375000Y-41802938D01*
X210375000Y-41802938D01*
G37*
X210375000Y-41802938D02*
X211625000Y-41802938D01*
X211639770Y-41800000D01*
X212200000Y-41800000D01*
X212200000Y-43700000D01*
X211639770Y-43700000D01*
X211625000Y-43697062D01*
X210375000Y-43697062D01*
X210360230Y-43700000D01*
X209800000Y-43700000D01*
X209800000Y-41800000D01*
X210360230Y-41800000D01*
X210375000Y-41802938D01*
G36*
X210375000Y-44302938D02*
X211625000Y-44302938D01*
X211639770Y-44300000D01*
X212200000Y-44300000D01*
X212200000Y-45200000D01*
X211639770Y-45200000D01*
X211625000Y-45197062D01*
X210375000Y-45197062D01*
X210360230Y-45200000D01*
X209800000Y-45200000D01*
X209800000Y-44300000D01*
X210360230Y-44300000D01*
X210375000Y-44302938D01*
X210375000Y-44302938D01*
G37*
X210375000Y-44302938D02*
X211625000Y-44302938D01*
X211639770Y-44300000D01*
X212200000Y-44300000D01*
X212200000Y-45200000D01*
X211639770Y-45200000D01*
X211625000Y-45197062D01*
X210375000Y-45197062D01*
X210360230Y-45200000D01*
X209800000Y-45200000D01*
X209800000Y-44300000D01*
X210360230Y-44300000D01*
X210375000Y-44302938D01*
G36*
X210375000Y-46802938D02*
X211625000Y-46802938D01*
X211639770Y-46800000D01*
X212200000Y-46800000D01*
X212200000Y-47200000D01*
X211639770Y-47200000D01*
X211625000Y-47197062D01*
X210375000Y-47197062D01*
X210360230Y-47200000D01*
X209800000Y-47200000D01*
X209800000Y-46800000D01*
X210360230Y-46800000D01*
X210375000Y-46802938D01*
X210375000Y-46802938D01*
G37*
X210375000Y-46802938D02*
X211625000Y-46802938D01*
X211639770Y-46800000D01*
X212200000Y-46800000D01*
X212200000Y-47200000D01*
X211639770Y-47200000D01*
X211625000Y-47197062D01*
X210375000Y-47197062D01*
X210360230Y-47200000D01*
X209800000Y-47200000D01*
X209800000Y-46800000D01*
X210360230Y-46800000D01*
X210375000Y-46802938D01*
G36*
X210375000Y-51302938D02*
X211625000Y-51302938D01*
X211639770Y-51300000D01*
X212200000Y-51300000D01*
X212200000Y-51700000D01*
X211639770Y-51700000D01*
X211625000Y-51697062D01*
X210375000Y-51697062D01*
X210360230Y-51700000D01*
X209800000Y-51700000D01*
X209800000Y-51300000D01*
X210360230Y-51300000D01*
X210375000Y-51302938D01*
X210375000Y-51302938D01*
G37*
X210375000Y-51302938D02*
X211625000Y-51302938D01*
X211639770Y-51300000D01*
X212200000Y-51300000D01*
X212200000Y-51700000D01*
X211639770Y-51700000D01*
X211625000Y-51697062D01*
X210375000Y-51697062D01*
X210360230Y-51700000D01*
X209800000Y-51700000D01*
X209800000Y-51300000D01*
X210360230Y-51300000D01*
X210375000Y-51302938D01*
G36*
X210375000Y-48302938D02*
X211625000Y-48302938D01*
X211639770Y-48300000D01*
X212102626Y-48300000D01*
X212102626Y-48700000D01*
X211639770Y-48700000D01*
X211625000Y-48697062D01*
X210375000Y-48697062D01*
X210360230Y-48700000D01*
X209702626Y-48700000D01*
X209702626Y-48300000D01*
X210360230Y-48300000D01*
X210375000Y-48302938D01*
X210375000Y-48302938D01*
G37*
X210375000Y-48302938D02*
X211625000Y-48302938D01*
X211639770Y-48300000D01*
X212102626Y-48300000D01*
X212102626Y-48700000D01*
X211639770Y-48700000D01*
X211625000Y-48697062D01*
X210375000Y-48697062D01*
X210360230Y-48700000D01*
X209702626Y-48700000D01*
X209702626Y-48300000D01*
X210360230Y-48300000D01*
X210375000Y-48302938D01*
G36*
X211550000Y-46550000D02*
X210450000Y-46550000D01*
X210450000Y-45950000D01*
X211550000Y-45950000D01*
X211550000Y-46550000D01*
X211550000Y-46550000D01*
G37*
X211550000Y-46550000D02*
X210450000Y-46550000D01*
X210450000Y-45950000D01*
X211550000Y-45950000D01*
X211550000Y-46550000D01*
M02*
